%TF.GenerationSoftware,KiCad,Pcbnew,9.0.7*%
%TF.CreationDate,2026-10-08T00:28:42-07:00*%
%TF.ProjectId,esp8266_board,65737038-3236-4365-9f62-6f6172642e6b,rev?*%
%TF.SameCoordinates,Original*%
%TF.FileFunction,Copper,L2,Bot*%
%TF.FilePolarity,Positive*%
%FSLAX46Y46*%
G04 Gerber Fmt 4.6, Leading zero omitted, Abs format (unit mm)*
G04 Created by KiCad (PCBNEW 9.0.7) date 2026-10-08 00:28:42*
%MOMM*%
%LPD*%
G01*
G04 APERTURE LIST*
G04 Aperture macros list*
%AMRoundRect*
0 Rectangle with rounded corners*
0 $1 Rounding radius*
0 $2 $3 $4 $5 $6 $7 $8 $9 X,Y pos of 4 corners*
0 Add a 4 corners polygon primitive as box body*
4,1,4,$2,$3,$4,$5,$6,$7,$8,$9,$2,$3,0*
0 Add four circle primitives for the rounded corners*
1,1,$1+$1,$2,$3*
1,1,$1+$1,$4,$5*
1,1,$1+$1,$6,$7*
1,1,$1+$1,$8,$9*
0 Add four rect primitives between the rounded corners*
20,1,$1+$1,$2,$3,$4,$5,0*
20,1,$1+$1,$4,$5,$6,$7,0*
20,1,$1+$1,$6,$7,$8,$9,0*
20,1,$1+$1,$8,$9,$2,$3,0*%
G04 Aperture macros list end*
%TA.AperFunction,ComponentPad*%
%ADD10R,2.200000X1.600000*%
%TD*%
%TA.AperFunction,ComponentPad*%
%ADD11O,2.200000X1.600000*%
%TD*%
%TA.AperFunction,ComponentPad*%
%ADD12C,2.000000*%
%TD*%
%TA.AperFunction,ComponentPad*%
%ADD13RoundRect,0.249999X-0.850001X-0.850001X0.850001X-0.850001X0.850001X0.850001X-0.850001X0.850001X0*%
%TD*%
%TA.AperFunction,ComponentPad*%
%ADD14C,2.200000*%
%TD*%
%TA.AperFunction,ComponentPad*%
%ADD15RoundRect,0.249999X-0.850001X0.850001X-0.850001X-0.850001X0.850001X-0.850001X0.850001X0.850001X0*%
%TD*%
%TA.AperFunction,ComponentPad*%
%ADD16C,1.400000*%
%TD*%
%TA.AperFunction,ComponentPad*%
%ADD17R,1.800000X1.800000*%
%TD*%
%TA.AperFunction,ComponentPad*%
%ADD18C,1.800000*%
%TD*%
%TA.AperFunction,ComponentPad*%
%ADD19R,0.850000X0.850000*%
%TD*%
%TA.AperFunction,ComponentPad*%
%ADD20C,0.850000*%
%TD*%
G04 APERTURE END LIST*
D10*
%TO.P,U1,1,RST*%
%TO.N,Net-(U1-RST)*%
X179500000Y-70600000D03*
D11*
%TO.P,U1,2,A0*%
%TO.N,Net-(J2-Pin_4)*%
X179500000Y-68060000D03*
%TO.P,U1,3,D0*%
%TO.N,Net-(J2-Pin_5)*%
X179500000Y-65520000D03*
%TO.P,U1,4,D5*%
%TO.N,Net-(J2-Pin_6)*%
X179500000Y-62980000D03*
%TO.P,U1,5,D6*%
%TO.N,Net-(J2-Pin_7)*%
X179500000Y-60440000D03*
%TO.P,U1,6,D7*%
%TO.N,Net-(U1-D7)*%
X179500000Y-57900000D03*
%TO.P,U1,7,D8*%
%TO.N,Net-(D1-A)*%
X179500000Y-55360000D03*
%TO.P,U1,8,3V3*%
%TO.N,unconnected-(U1-3V3-Pad8)*%
X179500000Y-52820000D03*
%TO.P,U1,9,5V*%
%TO.N,Net-(J2-Pin_8)*%
X157000000Y-52820000D03*
%TO.P,U1,10,GND*%
%TO.N,GND*%
X157000000Y-55360000D03*
%TO.P,U1,11,D4*%
%TO.N,Net-(J2-Pin_2)*%
X157000000Y-57900000D03*
%TO.P,U1,12,D3*%
%TO.N,Net-(J2-Pin_3)*%
X157000000Y-60440000D03*
%TO.P,U1,13,D2*%
%TO.N,Net-(J1-Pin_1)*%
X157000000Y-62980000D03*
%TO.P,U1,14,D1*%
%TO.N,Net-(J1-Pin_2)*%
X157000000Y-65520000D03*
%TO.P,U1,15,RX*%
%TO.N,Net-(J1-Pin_3)*%
X157000000Y-68060000D03*
%TO.P,U1,16,TX*%
%TO.N,Net-(J1-Pin_4)*%
X157000000Y-70600000D03*
%TD*%
D12*
%TO.P,SW1,2,2*%
%TO.N,Net-(U1-D7)*%
X190250000Y-63500000D03*
X183750000Y-63500000D03*
%TO.P,SW1,1,1*%
%TO.N,GND*%
X190250000Y-59000000D03*
X183750000Y-59000000D03*
%TD*%
%TO.P,SW2,2,2*%
%TO.N,Net-(U1-RST)*%
X190250000Y-71750000D03*
X183750000Y-71750000D03*
%TO.P,SW2,1,1*%
%TO.N,GND*%
X190250000Y-67250000D03*
X183750000Y-67250000D03*
%TD*%
D13*
%TO.P,J1,1,Pin_1*%
%TO.N,Net-(J1-Pin_1)*%
X144170000Y-68000000D03*
D14*
%TO.P,J1,2,Pin_2*%
%TO.N,Net-(J1-Pin_2)*%
X146710000Y-68000000D03*
%TO.P,J1,3,Pin_3*%
%TO.N,Net-(J1-Pin_3)*%
X149250000Y-68000000D03*
%TO.P,J1,4,Pin_4*%
%TO.N,Net-(J1-Pin_4)*%
X151790000Y-68000000D03*
%TD*%
D15*
%TO.P,J3,1,Pin_1*%
%TO.N,Net-(J2-Pin_8)*%
X150500000Y-56960000D03*
D14*
%TO.P,J3,2,Pin_2*%
%TO.N,GND*%
X150500000Y-59500000D03*
%TD*%
D16*
%TO.P,R1,1*%
%TO.N,GND*%
X184250000Y-53000000D03*
%TO.P,R1,2*%
%TO.N,Net-(D1-K)*%
X184250000Y-55540000D03*
%TD*%
D17*
%TO.P,D1,1,K*%
%TO.N,Net-(D1-K)*%
X190520000Y-55685000D03*
D18*
%TO.P,D1,2,A*%
%TO.N,Net-(D1-A)*%
X187980000Y-55685000D03*
%TD*%
D19*
%TO.P,J2,1,Pin_1*%
%TO.N,GND*%
X152000000Y-52750000D03*
D20*
%TO.P,J2,2,Pin_2*%
%TO.N,Net-(J2-Pin_2)*%
X151000000Y-52750000D03*
%TO.P,J2,3,Pin_3*%
%TO.N,Net-(J2-Pin_3)*%
X150000000Y-52750000D03*
%TO.P,J2,4,Pin_4*%
%TO.N,Net-(J2-Pin_4)*%
X149000000Y-52750000D03*
%TO.P,J2,5,Pin_5*%
%TO.N,Net-(J2-Pin_5)*%
X148000000Y-52750000D03*
%TO.P,J2,6,Pin_6*%
%TO.N,Net-(J2-Pin_6)*%
X147000000Y-52750000D03*
%TO.P,J2,7,Pin_7*%
%TO.N,Net-(J2-Pin_7)*%
X146000000Y-52750000D03*
%TO.P,J2,8,Pin_8*%
%TO.N,Net-(J2-Pin_8)*%
X145000000Y-52750000D03*
%TD*%
%TA.AperFunction,Conductor*%
%TO.N,GND*%
G36*
X191742539Y-44220185D02*
G01*
X191788294Y-44272989D01*
X191799500Y-44324500D01*
X191799500Y-54583298D01*
X191779815Y-54650337D01*
X191727011Y-54696092D01*
X191657853Y-54706036D01*
X191594297Y-54677011D01*
X191572399Y-54652191D01*
X191564551Y-54640447D01*
X191498230Y-54596132D01*
X191498229Y-54596131D01*
X191439752Y-54584500D01*
X191439748Y-54584500D01*
X189600252Y-54584500D01*
X189600247Y-54584500D01*
X189541770Y-54596131D01*
X189541769Y-54596132D01*
X189475447Y-54640447D01*
X189431132Y-54706769D01*
X189431131Y-54706770D01*
X189419500Y-54765247D01*
X189419500Y-56604752D01*
X189431131Y-56663229D01*
X189431132Y-56663230D01*
X189475447Y-56729552D01*
X189541769Y-56773867D01*
X189541770Y-56773868D01*
X189600247Y-56785499D01*
X189600250Y-56785500D01*
X189600252Y-56785500D01*
X191439750Y-56785500D01*
X191439751Y-56785499D01*
X191454568Y-56782552D01*
X191498229Y-56773868D01*
X191498229Y-56773867D01*
X191498231Y-56773867D01*
X191564552Y-56729552D01*
X191566585Y-56726510D01*
X191572398Y-56717811D01*
X191626010Y-56673005D01*
X191695335Y-56664298D01*
X191758362Y-56694452D01*
X191795082Y-56753895D01*
X191799500Y-56786701D01*
X191799500Y-58220534D01*
X191779815Y-58287573D01*
X191727011Y-58333328D01*
X191657853Y-58343272D01*
X191594297Y-58314247D01*
X191565015Y-58276829D01*
X191532914Y-58213828D01*
X191472658Y-58130894D01*
X191472658Y-58130893D01*
X190773787Y-58829765D01*
X190762518Y-58787708D01*
X190690110Y-58662292D01*
X190587708Y-58559890D01*
X190462292Y-58487482D01*
X190420234Y-58476212D01*
X191119105Y-57777340D01*
X191119104Y-57777338D01*
X191036174Y-57717087D01*
X190825802Y-57609897D01*
X190601247Y-57536934D01*
X190601248Y-57536934D01*
X190368052Y-57500000D01*
X190131948Y-57500000D01*
X189898752Y-57536934D01*
X189674197Y-57609897D01*
X189463830Y-57717084D01*
X189380894Y-57777340D01*
X190079766Y-58476212D01*
X190037708Y-58487482D01*
X189912292Y-58559890D01*
X189809890Y-58662292D01*
X189737482Y-58787708D01*
X189726212Y-58829765D01*
X189027340Y-58130894D01*
X188967084Y-58213830D01*
X188859897Y-58424197D01*
X188786934Y-58648752D01*
X188750000Y-58881947D01*
X188750000Y-59118052D01*
X188786934Y-59351247D01*
X188859897Y-59575802D01*
X188967087Y-59786174D01*
X189027338Y-59869104D01*
X189027340Y-59869105D01*
X189726212Y-59170233D01*
X189737482Y-59212292D01*
X189809890Y-59337708D01*
X189912292Y-59440110D01*
X190037708Y-59512518D01*
X190079765Y-59523787D01*
X189380893Y-60222658D01*
X189463828Y-60282914D01*
X189674197Y-60390102D01*
X189898752Y-60463065D01*
X189898751Y-60463065D01*
X190131948Y-60500000D01*
X190368052Y-60500000D01*
X190601247Y-60463065D01*
X190825802Y-60390102D01*
X191036163Y-60282918D01*
X191036169Y-60282914D01*
X191119104Y-60222658D01*
X191119105Y-60222658D01*
X190420233Y-59523787D01*
X190462292Y-59512518D01*
X190587708Y-59440110D01*
X190690110Y-59337708D01*
X190762518Y-59212292D01*
X190773787Y-59170233D01*
X191472658Y-59869105D01*
X191472658Y-59869104D01*
X191532914Y-59786169D01*
X191532921Y-59786159D01*
X191565015Y-59723171D01*
X191612989Y-59672375D01*
X191680810Y-59655579D01*
X191746945Y-59678116D01*
X191790397Y-59732831D01*
X191799500Y-59779465D01*
X191799500Y-66470534D01*
X191779815Y-66537573D01*
X191727011Y-66583328D01*
X191657853Y-66593272D01*
X191594297Y-66564247D01*
X191565015Y-66526829D01*
X191532914Y-66463828D01*
X191472658Y-66380894D01*
X191472658Y-66380893D01*
X190773787Y-67079765D01*
X190762518Y-67037708D01*
X190690110Y-66912292D01*
X190587708Y-66809890D01*
X190462292Y-66737482D01*
X190420234Y-66726212D01*
X191119105Y-66027340D01*
X191119104Y-66027338D01*
X191036174Y-65967087D01*
X190825802Y-65859897D01*
X190601247Y-65786934D01*
X190601248Y-65786934D01*
X190368052Y-65750000D01*
X190131948Y-65750000D01*
X189898752Y-65786934D01*
X189674197Y-65859897D01*
X189463830Y-65967084D01*
X189380894Y-66027340D01*
X190079766Y-66726212D01*
X190037708Y-66737482D01*
X189912292Y-66809890D01*
X189809890Y-66912292D01*
X189737482Y-67037708D01*
X189726212Y-67079766D01*
X189027340Y-66380894D01*
X188967084Y-66463830D01*
X188859897Y-66674197D01*
X188786934Y-66898752D01*
X188750000Y-67131947D01*
X188750000Y-67368052D01*
X188786934Y-67601247D01*
X188859897Y-67825802D01*
X188967087Y-68036174D01*
X189027338Y-68119104D01*
X189027340Y-68119105D01*
X189726212Y-67420233D01*
X189737482Y-67462292D01*
X189809890Y-67587708D01*
X189912292Y-67690110D01*
X190037708Y-67762518D01*
X190079765Y-67773787D01*
X189380893Y-68472658D01*
X189463828Y-68532914D01*
X189674197Y-68640102D01*
X189898752Y-68713065D01*
X189898751Y-68713065D01*
X190131948Y-68750000D01*
X190368052Y-68750000D01*
X190601247Y-68713065D01*
X190825802Y-68640102D01*
X191036163Y-68532918D01*
X191036169Y-68532914D01*
X191119104Y-68472658D01*
X191119105Y-68472658D01*
X190420233Y-67773787D01*
X190462292Y-67762518D01*
X190587708Y-67690110D01*
X190690110Y-67587708D01*
X190762518Y-67462292D01*
X190773787Y-67420234D01*
X191472658Y-68119105D01*
X191472658Y-68119104D01*
X191532914Y-68036169D01*
X191532921Y-68036159D01*
X191565015Y-67973171D01*
X191612989Y-67922375D01*
X191680810Y-67905579D01*
X191746945Y-67928116D01*
X191790397Y-67982831D01*
X191799500Y-68029465D01*
X191799500Y-73675500D01*
X191779815Y-73742539D01*
X191727011Y-73788294D01*
X191675500Y-73799500D01*
X142324500Y-73799500D01*
X142257461Y-73779815D01*
X142211706Y-73727011D01*
X142200500Y-73675500D01*
X142200500Y-70698543D01*
X155699499Y-70698543D01*
X155737947Y-70891829D01*
X155737950Y-70891839D01*
X155813364Y-71073907D01*
X155813371Y-71073920D01*
X155922860Y-71237781D01*
X155922863Y-71237785D01*
X156062214Y-71377136D01*
X156062218Y-71377139D01*
X156226079Y-71486628D01*
X156226092Y-71486635D01*
X156373144Y-71547545D01*
X156408165Y-71562051D01*
X156408169Y-71562051D01*
X156408170Y-71562052D01*
X156601456Y-71600500D01*
X156601459Y-71600500D01*
X157398543Y-71600500D01*
X157528582Y-71574632D01*
X157591835Y-71562051D01*
X157773914Y-71486632D01*
X157937782Y-71377139D01*
X158077139Y-71237782D01*
X158186632Y-71073914D01*
X158261273Y-70893713D01*
X159649500Y-70893713D01*
X159649500Y-71106286D01*
X159678465Y-71289168D01*
X159682754Y-71316243D01*
X159735387Y-71478231D01*
X159748444Y-71518414D01*
X159844951Y-71707820D01*
X159969890Y-71879786D01*
X160120213Y-72030109D01*
X160292179Y-72155048D01*
X160292181Y-72155049D01*
X160292184Y-72155051D01*
X160481588Y-72251557D01*
X160683757Y-72317246D01*
X160893713Y-72350500D01*
X160893714Y-72350500D01*
X161106286Y-72350500D01*
X161106287Y-72350500D01*
X161316243Y-72317246D01*
X161518412Y-72251557D01*
X161707816Y-72155051D01*
X161729789Y-72139086D01*
X161879786Y-72030109D01*
X161879788Y-72030106D01*
X161879792Y-72030104D01*
X162030104Y-71879792D01*
X162030106Y-71879788D01*
X162030109Y-71879786D01*
X162155048Y-71707820D01*
X162155047Y-71707820D01*
X162155051Y-71707816D01*
X162181701Y-71655513D01*
X182549500Y-71655513D01*
X182549500Y-71844486D01*
X182579059Y-72031118D01*
X182637454Y-72210836D01*
X182658202Y-72251555D01*
X182723240Y-72379199D01*
X182834310Y-72532073D01*
X182967927Y-72665690D01*
X183120801Y-72776760D01*
X183200347Y-72817290D01*
X183289163Y-72862545D01*
X183289165Y-72862545D01*
X183289168Y-72862547D01*
X183385497Y-72893846D01*
X183468881Y-72920940D01*
X183655514Y-72950500D01*
X183655519Y-72950500D01*
X183844486Y-72950500D01*
X184031118Y-72920940D01*
X184210832Y-72862547D01*
X184379199Y-72776760D01*
X184532073Y-72665690D01*
X184665690Y-72532073D01*
X184776760Y-72379199D01*
X184862547Y-72210832D01*
X184920940Y-72031118D01*
X184921101Y-72030104D01*
X184950500Y-71844486D01*
X184950500Y-71655513D01*
X189049500Y-71655513D01*
X189049500Y-71844486D01*
X189079059Y-72031118D01*
X189137454Y-72210836D01*
X189158202Y-72251555D01*
X189223240Y-72379199D01*
X189334310Y-72532073D01*
X189467927Y-72665690D01*
X189620801Y-72776760D01*
X189700347Y-72817290D01*
X189789163Y-72862545D01*
X189789165Y-72862545D01*
X189789168Y-72862547D01*
X189885497Y-72893846D01*
X189968881Y-72920940D01*
X190155514Y-72950500D01*
X190155519Y-72950500D01*
X190344486Y-72950500D01*
X190531118Y-72920940D01*
X190710832Y-72862547D01*
X190879199Y-72776760D01*
X191032073Y-72665690D01*
X191165690Y-72532073D01*
X191276760Y-72379199D01*
X191362547Y-72210832D01*
X191420940Y-72031118D01*
X191421101Y-72030104D01*
X191450500Y-71844486D01*
X191450500Y-71655513D01*
X191420940Y-71468881D01*
X191362545Y-71289163D01*
X191276759Y-71120800D01*
X191266214Y-71106286D01*
X191165690Y-70967927D01*
X191032073Y-70834310D01*
X190879199Y-70723240D01*
X190710836Y-70637454D01*
X190531118Y-70579059D01*
X190344486Y-70549500D01*
X190344481Y-70549500D01*
X190155519Y-70549500D01*
X190155514Y-70549500D01*
X189968881Y-70579059D01*
X189789163Y-70637454D01*
X189620800Y-70723240D01*
X189533579Y-70786610D01*
X189467927Y-70834310D01*
X189467925Y-70834312D01*
X189467924Y-70834312D01*
X189334312Y-70967924D01*
X189334312Y-70967925D01*
X189334310Y-70967927D01*
X189286610Y-71033579D01*
X189223240Y-71120800D01*
X189137454Y-71289163D01*
X189079059Y-71468881D01*
X189049500Y-71655513D01*
X184950500Y-71655513D01*
X184920940Y-71468881D01*
X184862545Y-71289163D01*
X184776759Y-71120800D01*
X184766214Y-71106286D01*
X184665690Y-70967927D01*
X184532073Y-70834310D01*
X184379199Y-70723240D01*
X184210836Y-70637454D01*
X184031118Y-70579059D01*
X183844486Y-70549500D01*
X183844481Y-70549500D01*
X183655519Y-70549500D01*
X183655514Y-70549500D01*
X183468881Y-70579059D01*
X183289163Y-70637454D01*
X183120800Y-70723240D01*
X183033579Y-70786610D01*
X182967927Y-70834310D01*
X182967925Y-70834312D01*
X182967924Y-70834312D01*
X182834312Y-70967924D01*
X182834312Y-70967925D01*
X182834310Y-70967927D01*
X182786610Y-71033579D01*
X182723240Y-71120800D01*
X182637454Y-71289163D01*
X182579059Y-71468881D01*
X182549500Y-71655513D01*
X162181701Y-71655513D01*
X162251557Y-71518412D01*
X162317246Y-71316243D01*
X162350500Y-71106287D01*
X162350500Y-70893713D01*
X162317246Y-70683757D01*
X162251557Y-70481588D01*
X162155051Y-70292184D01*
X162155049Y-70292181D01*
X162155048Y-70292179D01*
X162030109Y-70120213D01*
X161879790Y-69969894D01*
X161879785Y-69969890D01*
X161748461Y-69874478D01*
X161707818Y-69844950D01*
X161580831Y-69780247D01*
X178199500Y-69780247D01*
X178199500Y-71419752D01*
X178211131Y-71478229D01*
X178211132Y-71478230D01*
X178255447Y-71544552D01*
X178321769Y-71588867D01*
X178321770Y-71588868D01*
X178380247Y-71600499D01*
X178380250Y-71600500D01*
X178380252Y-71600500D01*
X180619750Y-71600500D01*
X180619751Y-71600499D01*
X180639418Y-71596587D01*
X180678228Y-71588868D01*
X180678228Y-71588867D01*
X180678231Y-71588867D01*
X180744552Y-71544552D01*
X180788867Y-71478231D01*
X180788867Y-71478229D01*
X180788868Y-71478229D01*
X180800499Y-71419752D01*
X180800500Y-71419750D01*
X180800500Y-69780249D01*
X180800499Y-69780247D01*
X180788868Y-69721770D01*
X180788867Y-69721769D01*
X180744552Y-69655447D01*
X180678230Y-69611132D01*
X180678229Y-69611131D01*
X180619752Y-69599500D01*
X180619748Y-69599500D01*
X178380252Y-69599500D01*
X178380247Y-69599500D01*
X178321770Y-69611131D01*
X178321769Y-69611132D01*
X178255447Y-69655447D01*
X178211132Y-69721769D01*
X178211131Y-69721770D01*
X178199500Y-69780247D01*
X161580831Y-69780247D01*
X161518414Y-69748444D01*
X161518413Y-69748443D01*
X161518412Y-69748443D01*
X161316243Y-69682754D01*
X161316241Y-69682753D01*
X161316240Y-69682753D01*
X161143841Y-69655448D01*
X161106287Y-69649500D01*
X160893713Y-69649500D01*
X160856159Y-69655448D01*
X160683760Y-69682753D01*
X160481585Y-69748444D01*
X160292179Y-69844951D01*
X160120213Y-69969890D01*
X159969890Y-70120213D01*
X159844951Y-70292179D01*
X159748444Y-70481585D01*
X159748443Y-70481587D01*
X159748443Y-70481588D01*
X159726377Y-70549500D01*
X159682753Y-70683760D01*
X159649500Y-70893713D01*
X158261273Y-70893713D01*
X158262051Y-70891835D01*
X158264964Y-70877187D01*
X158267459Y-70864650D01*
X158267459Y-70864649D01*
X158300500Y-70698543D01*
X158300500Y-70501456D01*
X158262052Y-70308170D01*
X158262051Y-70308169D01*
X158262051Y-70308165D01*
X158255432Y-70292184D01*
X158186635Y-70126092D01*
X158186628Y-70126079D01*
X158077139Y-69962218D01*
X158077136Y-69962214D01*
X157937785Y-69822863D01*
X157937781Y-69822860D01*
X157773920Y-69713371D01*
X157773907Y-69713364D01*
X157591839Y-69637950D01*
X157591829Y-69637947D01*
X157398543Y-69599500D01*
X157398541Y-69599500D01*
X156601459Y-69599500D01*
X156601457Y-69599500D01*
X156408170Y-69637947D01*
X156408160Y-69637950D01*
X156226092Y-69713364D01*
X156226079Y-69713371D01*
X156062218Y-69822860D01*
X156062214Y-69822863D01*
X155922863Y-69962214D01*
X155922860Y-69962218D01*
X155813371Y-70126079D01*
X155813364Y-70126092D01*
X155737950Y-70308160D01*
X155737947Y-70308170D01*
X155699500Y-70501456D01*
X155699500Y-70501459D01*
X155699500Y-70698541D01*
X155699500Y-70698543D01*
X155699499Y-70698543D01*
X142200500Y-70698543D01*
X142200500Y-67095729D01*
X142869500Y-67095729D01*
X142869500Y-68904260D01*
X142870580Y-68915779D01*
X142872354Y-68934700D01*
X142872354Y-68934702D01*
X142872355Y-68934703D01*
X142872355Y-68934705D01*
X142917206Y-69062882D01*
X142997849Y-69172150D01*
X143042655Y-69205218D01*
X143107117Y-69252793D01*
X143149844Y-69267744D01*
X143235298Y-69297646D01*
X143242323Y-69298304D01*
X143265733Y-69300500D01*
X145074266Y-69300499D01*
X145104700Y-69297646D01*
X145232883Y-69252793D01*
X145342150Y-69172150D01*
X145422793Y-69062883D01*
X145463471Y-68946632D01*
X145467646Y-68934702D01*
X145467646Y-68934700D01*
X145470500Y-68904267D01*
X145470499Y-68888153D01*
X145490180Y-68821116D01*
X145542982Y-68775358D01*
X145612140Y-68765411D01*
X145675697Y-68794433D01*
X145694817Y-68815265D01*
X145718028Y-68847212D01*
X145718032Y-68847217D01*
X145862786Y-68991971D01*
X146017749Y-69104556D01*
X146028390Y-69112287D01*
X146144607Y-69171503D01*
X146210776Y-69205218D01*
X146210778Y-69205218D01*
X146210781Y-69205220D01*
X146315137Y-69239127D01*
X146405465Y-69268477D01*
X146506557Y-69284488D01*
X146607648Y-69300500D01*
X146607649Y-69300500D01*
X146812351Y-69300500D01*
X146812352Y-69300500D01*
X147014534Y-69268477D01*
X147209219Y-69205220D01*
X147391610Y-69112287D01*
X147515809Y-69022052D01*
X147557213Y-68991971D01*
X147557215Y-68991968D01*
X147557219Y-68991966D01*
X147701966Y-68847219D01*
X147701968Y-68847215D01*
X147701971Y-68847213D01*
X147822284Y-68681614D01*
X147822285Y-68681613D01*
X147822287Y-68681610D01*
X147869516Y-68588917D01*
X147917489Y-68538123D01*
X147985310Y-68521328D01*
X148051445Y-68543865D01*
X148090485Y-68588919D01*
X148137715Y-68681614D01*
X148258028Y-68847213D01*
X148402786Y-68991971D01*
X148557749Y-69104556D01*
X148568390Y-69112287D01*
X148684607Y-69171503D01*
X148750776Y-69205218D01*
X148750778Y-69205218D01*
X148750781Y-69205220D01*
X148855137Y-69239127D01*
X148945465Y-69268477D01*
X149046557Y-69284488D01*
X149147648Y-69300500D01*
X149147649Y-69300500D01*
X149352351Y-69300500D01*
X149352352Y-69300500D01*
X149554534Y-69268477D01*
X149749219Y-69205220D01*
X149931610Y-69112287D01*
X150055809Y-69022052D01*
X150097213Y-68991971D01*
X150097215Y-68991968D01*
X150097219Y-68991966D01*
X150241966Y-68847219D01*
X150241968Y-68847215D01*
X150241971Y-68847213D01*
X150362284Y-68681614D01*
X150362285Y-68681613D01*
X150362287Y-68681610D01*
X150409516Y-68588917D01*
X150457489Y-68538123D01*
X150525310Y-68521328D01*
X150591445Y-68543865D01*
X150630485Y-68588919D01*
X150677715Y-68681614D01*
X150798028Y-68847213D01*
X150942786Y-68991971D01*
X151097749Y-69104556D01*
X151108390Y-69112287D01*
X151224607Y-69171503D01*
X151290776Y-69205218D01*
X151290778Y-69205218D01*
X151290781Y-69205220D01*
X151395137Y-69239127D01*
X151485465Y-69268477D01*
X151586557Y-69284488D01*
X151687648Y-69300500D01*
X151687649Y-69300500D01*
X151892351Y-69300500D01*
X151892352Y-69300500D01*
X152094534Y-69268477D01*
X152289219Y-69205220D01*
X152471610Y-69112287D01*
X152595809Y-69022052D01*
X152637213Y-68991971D01*
X152637215Y-68991968D01*
X152637219Y-68991966D01*
X152781966Y-68847219D01*
X152781968Y-68847215D01*
X152781971Y-68847213D01*
X152834732Y-68774590D01*
X152902287Y-68681610D01*
X152995220Y-68499219D01*
X153058477Y-68304534D01*
X153081600Y-68158543D01*
X155699499Y-68158543D01*
X155737947Y-68351829D01*
X155737950Y-68351839D01*
X155813364Y-68533907D01*
X155813371Y-68533920D01*
X155922860Y-68697781D01*
X155922863Y-68697785D01*
X156062214Y-68837136D01*
X156062218Y-68837139D01*
X156226079Y-68946628D01*
X156226092Y-68946635D01*
X156408160Y-69022049D01*
X156408165Y-69022051D01*
X156408169Y-69022051D01*
X156408170Y-69022052D01*
X156601456Y-69060500D01*
X156601459Y-69060500D01*
X157398543Y-69060500D01*
X157528582Y-69034632D01*
X157591835Y-69022051D01*
X157773914Y-68946632D01*
X157937782Y-68837139D01*
X158077139Y-68697782D01*
X158186632Y-68533914D01*
X158262051Y-68351835D01*
X158300500Y-68158543D01*
X178199499Y-68158543D01*
X178237947Y-68351829D01*
X178237950Y-68351839D01*
X178313364Y-68533907D01*
X178313371Y-68533920D01*
X178422860Y-68697781D01*
X178422863Y-68697785D01*
X178562214Y-68837136D01*
X178562218Y-68837139D01*
X178726079Y-68946628D01*
X178726092Y-68946635D01*
X178908160Y-69022049D01*
X178908165Y-69022051D01*
X178908169Y-69022051D01*
X178908170Y-69022052D01*
X179101456Y-69060500D01*
X179101459Y-69060500D01*
X179898543Y-69060500D01*
X180028582Y-69034632D01*
X180091835Y-69022051D01*
X180273914Y-68946632D01*
X180437782Y-68837139D01*
X180577139Y-68697782D01*
X180686632Y-68533914D01*
X180762051Y-68351835D01*
X180800500Y-68158541D01*
X180800500Y-67961459D01*
X180800500Y-67961456D01*
X180762052Y-67768170D01*
X180762051Y-67768169D01*
X180762051Y-67768165D01*
X180735921Y-67705081D01*
X180686635Y-67586092D01*
X180686628Y-67586079D01*
X180577139Y-67422218D01*
X180577136Y-67422214D01*
X180437782Y-67282860D01*
X180358935Y-67230177D01*
X180273920Y-67173371D01*
X180273907Y-67173364D01*
X180173916Y-67131947D01*
X182250000Y-67131947D01*
X182250000Y-67368052D01*
X182286934Y-67601247D01*
X182359897Y-67825802D01*
X182467087Y-68036174D01*
X182527338Y-68119104D01*
X182527340Y-68119105D01*
X183226212Y-67420233D01*
X183237482Y-67462292D01*
X183309890Y-67587708D01*
X183412292Y-67690110D01*
X183537708Y-67762518D01*
X183579765Y-67773787D01*
X182880893Y-68472658D01*
X182963828Y-68532914D01*
X183174197Y-68640102D01*
X183398752Y-68713065D01*
X183398751Y-68713065D01*
X183631948Y-68750000D01*
X183868052Y-68750000D01*
X184101247Y-68713065D01*
X184325802Y-68640102D01*
X184536163Y-68532918D01*
X184536169Y-68532914D01*
X184619104Y-68472658D01*
X184619105Y-68472658D01*
X183920233Y-67773787D01*
X183962292Y-67762518D01*
X184087708Y-67690110D01*
X184190110Y-67587708D01*
X184262518Y-67462292D01*
X184273787Y-67420233D01*
X184972658Y-68119105D01*
X184972658Y-68119104D01*
X185032914Y-68036169D01*
X185032918Y-68036163D01*
X185140102Y-67825802D01*
X185213065Y-67601247D01*
X185250000Y-67368052D01*
X185250000Y-67131947D01*
X185213065Y-66898752D01*
X185140102Y-66674197D01*
X185032914Y-66463828D01*
X184972658Y-66380894D01*
X184972658Y-66380893D01*
X184273787Y-67079765D01*
X184262518Y-67037708D01*
X184190110Y-66912292D01*
X184087708Y-66809890D01*
X183962292Y-66737482D01*
X183920234Y-66726212D01*
X184619105Y-66027340D01*
X184619104Y-66027339D01*
X184536174Y-65967087D01*
X184325802Y-65859897D01*
X184101247Y-65786934D01*
X184101248Y-65786934D01*
X183868052Y-65750000D01*
X183631948Y-65750000D01*
X183398752Y-65786934D01*
X183174197Y-65859897D01*
X182963830Y-65967084D01*
X182880894Y-66027340D01*
X183579766Y-66726212D01*
X183537708Y-66737482D01*
X183412292Y-66809890D01*
X183309890Y-66912292D01*
X183237482Y-67037708D01*
X183226212Y-67079766D01*
X182527340Y-66380894D01*
X182467084Y-66463830D01*
X182359897Y-66674197D01*
X182286934Y-66898752D01*
X182250000Y-67131947D01*
X180173916Y-67131947D01*
X180091839Y-67097950D01*
X180091829Y-67097947D01*
X179898543Y-67059500D01*
X179898541Y-67059500D01*
X179101459Y-67059500D01*
X179101457Y-67059500D01*
X178908170Y-67097947D01*
X178908160Y-67097950D01*
X178726092Y-67173364D01*
X178726079Y-67173371D01*
X178562218Y-67282860D01*
X178562214Y-67282863D01*
X178422863Y-67422214D01*
X178422860Y-67422218D01*
X178313371Y-67586079D01*
X178313364Y-67586092D01*
X178237950Y-67768160D01*
X178237947Y-67768170D01*
X178199500Y-67961456D01*
X178199500Y-67961459D01*
X178199500Y-68158541D01*
X178199500Y-68158543D01*
X178199499Y-68158543D01*
X158300500Y-68158543D01*
X158300500Y-68158541D01*
X158300500Y-67961459D01*
X158300500Y-67961456D01*
X158262052Y-67768170D01*
X158262051Y-67768169D01*
X158262051Y-67768165D01*
X158235921Y-67705081D01*
X158186635Y-67586092D01*
X158186628Y-67586079D01*
X158077139Y-67422218D01*
X158077136Y-67422214D01*
X157937785Y-67282863D01*
X157937781Y-67282860D01*
X157773920Y-67173371D01*
X157773907Y-67173364D01*
X157591839Y-67097950D01*
X157591829Y-67097947D01*
X157398543Y-67059500D01*
X157398541Y-67059500D01*
X156601459Y-67059500D01*
X156601457Y-67059500D01*
X156408170Y-67097947D01*
X156408160Y-67097950D01*
X156226092Y-67173364D01*
X156226079Y-67173371D01*
X156062218Y-67282860D01*
X156062214Y-67282863D01*
X155922863Y-67422214D01*
X155922860Y-67422218D01*
X155813371Y-67586079D01*
X155813364Y-67586092D01*
X155737950Y-67768160D01*
X155737947Y-67768170D01*
X155699500Y-67961456D01*
X155699500Y-67961459D01*
X155699500Y-68158541D01*
X155699500Y-68158543D01*
X155699499Y-68158543D01*
X153081600Y-68158543D01*
X153090500Y-68102352D01*
X153090500Y-67897648D01*
X153058477Y-67695466D01*
X152995220Y-67500781D01*
X152995218Y-67500778D01*
X152995218Y-67500776D01*
X152927591Y-67368052D01*
X152902287Y-67318390D01*
X152894556Y-67307749D01*
X152781971Y-67152786D01*
X152637213Y-67008028D01*
X152471613Y-66887715D01*
X152471612Y-66887714D01*
X152471610Y-66887713D01*
X152414653Y-66858691D01*
X152289223Y-66794781D01*
X152094534Y-66731522D01*
X151910371Y-66702354D01*
X151892352Y-66699500D01*
X151687648Y-66699500D01*
X151669635Y-66702353D01*
X151485465Y-66731522D01*
X151290776Y-66794781D01*
X151108386Y-66887715D01*
X150942786Y-67008028D01*
X150798028Y-67152786D01*
X150677715Y-67318386D01*
X150630485Y-67411080D01*
X150582510Y-67461876D01*
X150514689Y-67478671D01*
X150448554Y-67456134D01*
X150409515Y-67411080D01*
X150387591Y-67368052D01*
X150362287Y-67318390D01*
X150354556Y-67307749D01*
X150241971Y-67152786D01*
X150097213Y-67008028D01*
X149931613Y-66887715D01*
X149931612Y-66887714D01*
X149931610Y-66887713D01*
X149874653Y-66858691D01*
X149749223Y-66794781D01*
X149554534Y-66731522D01*
X149370371Y-66702354D01*
X149352352Y-66699500D01*
X149147648Y-66699500D01*
X149129635Y-66702353D01*
X148945465Y-66731522D01*
X148750776Y-66794781D01*
X148568386Y-66887715D01*
X148402786Y-67008028D01*
X148258028Y-67152786D01*
X148137715Y-67318386D01*
X148090485Y-67411080D01*
X148042510Y-67461876D01*
X147974689Y-67478671D01*
X147908554Y-67456134D01*
X147869515Y-67411080D01*
X147847591Y-67368052D01*
X147822287Y-67318390D01*
X147814556Y-67307749D01*
X147701971Y-67152786D01*
X147557213Y-67008028D01*
X147391613Y-66887715D01*
X147391612Y-66887714D01*
X147391610Y-66887713D01*
X147334653Y-66858691D01*
X147209223Y-66794781D01*
X147014534Y-66731522D01*
X146830371Y-66702354D01*
X146812352Y-66699500D01*
X146607648Y-66699500D01*
X146589635Y-66702353D01*
X146405465Y-66731522D01*
X146210776Y-66794781D01*
X146028386Y-66887715D01*
X145862786Y-67008028D01*
X145718032Y-67152782D01*
X145718028Y-67152787D01*
X145694817Y-67184735D01*
X145639487Y-67227401D01*
X145569874Y-67233380D01*
X145508079Y-67200774D01*
X145473722Y-67139936D01*
X145470499Y-67111850D01*
X145470499Y-67095739D01*
X145470499Y-67095734D01*
X145467646Y-67065300D01*
X145465616Y-67059500D01*
X145422793Y-66937117D01*
X145342150Y-66827849D01*
X145268123Y-66773215D01*
X145232883Y-66747207D01*
X145232881Y-66747206D01*
X145104701Y-66702353D01*
X145074270Y-66699500D01*
X143265739Y-66699500D01*
X143251751Y-66700811D01*
X143235300Y-66702354D01*
X143235297Y-66702354D01*
X143235296Y-66702355D01*
X143235294Y-66702355D01*
X143107117Y-66747206D01*
X142997849Y-66827849D01*
X142917206Y-66937118D01*
X142872353Y-67065297D01*
X142872353Y-67065299D01*
X142869500Y-67095729D01*
X142200500Y-67095729D01*
X142200500Y-65618543D01*
X155699499Y-65618543D01*
X155737947Y-65811829D01*
X155737950Y-65811839D01*
X155813364Y-65993907D01*
X155813371Y-65993920D01*
X155922860Y-66157781D01*
X155922863Y-66157785D01*
X156062214Y-66297136D01*
X156062218Y-66297139D01*
X156226079Y-66406628D01*
X156226092Y-66406635D01*
X156364170Y-66463828D01*
X156408165Y-66482051D01*
X156408169Y-66482051D01*
X156408170Y-66482052D01*
X156601456Y-66520500D01*
X156601459Y-66520500D01*
X157398543Y-66520500D01*
X157528582Y-66494632D01*
X157591835Y-66482051D01*
X157773914Y-66406632D01*
X157937782Y-66297139D01*
X158077139Y-66157782D01*
X158186632Y-65993914D01*
X158262051Y-65811835D01*
X158300500Y-65618543D01*
X178199499Y-65618543D01*
X178237947Y-65811829D01*
X178237950Y-65811839D01*
X178313364Y-65993907D01*
X178313371Y-65993920D01*
X178422860Y-66157781D01*
X178422863Y-66157785D01*
X178562214Y-66297136D01*
X178562218Y-66297139D01*
X178726079Y-66406628D01*
X178726092Y-66406635D01*
X178864170Y-66463828D01*
X178908165Y-66482051D01*
X178908169Y-66482051D01*
X178908170Y-66482052D01*
X179101456Y-66520500D01*
X179101459Y-66520500D01*
X179898543Y-66520500D01*
X180028582Y-66494632D01*
X180091835Y-66482051D01*
X180273914Y-66406632D01*
X180437782Y-66297139D01*
X180577139Y-66157782D01*
X180635667Y-66070188D01*
X180678752Y-66005708D01*
X180682117Y-66000669D01*
X180686632Y-65993914D01*
X180762051Y-65811835D01*
X180800500Y-65618541D01*
X180800500Y-65421459D01*
X180800500Y-65421456D01*
X180762052Y-65228170D01*
X180762051Y-65228169D01*
X180762051Y-65228165D01*
X180762049Y-65228160D01*
X180686635Y-65046092D01*
X180686628Y-65046079D01*
X180577139Y-64882218D01*
X180577136Y-64882214D01*
X180437785Y-64742863D01*
X180437781Y-64742860D01*
X180273920Y-64633371D01*
X180273907Y-64633364D01*
X180091839Y-64557950D01*
X180091829Y-64557947D01*
X179898543Y-64519500D01*
X179898541Y-64519500D01*
X179101459Y-64519500D01*
X179101457Y-64519500D01*
X178908170Y-64557947D01*
X178908160Y-64557950D01*
X178726092Y-64633364D01*
X178726079Y-64633371D01*
X178562218Y-64742860D01*
X178562214Y-64742863D01*
X178422863Y-64882214D01*
X178422860Y-64882218D01*
X178313371Y-65046079D01*
X178313364Y-65046092D01*
X178237950Y-65228160D01*
X178237947Y-65228170D01*
X178199500Y-65421456D01*
X178199500Y-65421459D01*
X178199500Y-65618541D01*
X178199500Y-65618543D01*
X178199499Y-65618543D01*
X158300500Y-65618543D01*
X158300500Y-65618541D01*
X158300500Y-65421459D01*
X158300500Y-65421456D01*
X158262052Y-65228170D01*
X158262051Y-65228169D01*
X158262051Y-65228165D01*
X158262049Y-65228160D01*
X158186635Y-65046092D01*
X158186628Y-65046079D01*
X158077139Y-64882218D01*
X158077136Y-64882214D01*
X157937785Y-64742863D01*
X157937781Y-64742860D01*
X157773920Y-64633371D01*
X157773907Y-64633364D01*
X157591839Y-64557950D01*
X157591829Y-64557947D01*
X157398543Y-64519500D01*
X157398541Y-64519500D01*
X156601459Y-64519500D01*
X156601457Y-64519500D01*
X156408170Y-64557947D01*
X156408160Y-64557950D01*
X156226092Y-64633364D01*
X156226079Y-64633371D01*
X156062218Y-64742860D01*
X156062214Y-64742863D01*
X155922863Y-64882214D01*
X155922860Y-64882218D01*
X155813371Y-65046079D01*
X155813364Y-65046092D01*
X155737950Y-65228160D01*
X155737947Y-65228170D01*
X155699500Y-65421456D01*
X155699500Y-65421459D01*
X155699500Y-65618541D01*
X155699500Y-65618543D01*
X155699499Y-65618543D01*
X142200500Y-65618543D01*
X142200500Y-63078543D01*
X155699499Y-63078543D01*
X155737947Y-63271829D01*
X155737950Y-63271839D01*
X155813364Y-63453907D01*
X155813371Y-63453920D01*
X155922860Y-63617781D01*
X155922863Y-63617785D01*
X156062214Y-63757136D01*
X156062218Y-63757139D01*
X156226079Y-63866628D01*
X156226092Y-63866635D01*
X156408160Y-63942049D01*
X156408165Y-63942051D01*
X156408169Y-63942051D01*
X156408170Y-63942052D01*
X156601456Y-63980500D01*
X156601459Y-63980500D01*
X157398543Y-63980500D01*
X157528582Y-63954632D01*
X157591835Y-63942051D01*
X157773914Y-63866632D01*
X157937782Y-63757139D01*
X158077139Y-63617782D01*
X158186632Y-63453914D01*
X158262051Y-63271835D01*
X158300500Y-63078543D01*
X178199499Y-63078543D01*
X178237947Y-63271829D01*
X178237950Y-63271839D01*
X178313364Y-63453907D01*
X178313371Y-63453920D01*
X178422860Y-63617781D01*
X178422863Y-63617785D01*
X178562214Y-63757136D01*
X178562218Y-63757139D01*
X178726079Y-63866628D01*
X178726092Y-63866635D01*
X178908160Y-63942049D01*
X178908165Y-63942051D01*
X178908169Y-63942051D01*
X178908170Y-63942052D01*
X179101456Y-63980500D01*
X179101459Y-63980500D01*
X179898543Y-63980500D01*
X180028582Y-63954632D01*
X180091835Y-63942051D01*
X180273914Y-63866632D01*
X180437782Y-63757139D01*
X180577139Y-63617782D01*
X180686632Y-63453914D01*
X180706680Y-63405513D01*
X182549500Y-63405513D01*
X182549500Y-63594486D01*
X182579059Y-63781118D01*
X182637454Y-63960836D01*
X182723240Y-64129199D01*
X182834310Y-64282073D01*
X182967927Y-64415690D01*
X183120801Y-64526760D01*
X183182009Y-64557947D01*
X183289163Y-64612545D01*
X183289165Y-64612545D01*
X183289168Y-64612547D01*
X183385497Y-64643846D01*
X183468881Y-64670940D01*
X183655514Y-64700500D01*
X183655519Y-64700500D01*
X183844486Y-64700500D01*
X184031118Y-64670940D01*
X184210832Y-64612547D01*
X184379199Y-64526760D01*
X184532073Y-64415690D01*
X184665690Y-64282073D01*
X184776760Y-64129199D01*
X184862547Y-63960832D01*
X184920940Y-63781118D01*
X184924738Y-63757136D01*
X184950500Y-63594486D01*
X184950500Y-63405513D01*
X189049500Y-63405513D01*
X189049500Y-63594486D01*
X189079059Y-63781118D01*
X189137454Y-63960836D01*
X189223240Y-64129199D01*
X189334310Y-64282073D01*
X189467927Y-64415690D01*
X189620801Y-64526760D01*
X189682009Y-64557947D01*
X189789163Y-64612545D01*
X189789165Y-64612545D01*
X189789168Y-64612547D01*
X189885497Y-64643846D01*
X189968881Y-64670940D01*
X190155514Y-64700500D01*
X190155519Y-64700500D01*
X190344486Y-64700500D01*
X190531118Y-64670940D01*
X190710832Y-64612547D01*
X190879199Y-64526760D01*
X191032073Y-64415690D01*
X191165690Y-64282073D01*
X191276760Y-64129199D01*
X191362547Y-63960832D01*
X191420940Y-63781118D01*
X191424738Y-63757136D01*
X191450500Y-63594486D01*
X191450500Y-63405513D01*
X191420940Y-63218881D01*
X191362545Y-63039163D01*
X191317290Y-62950347D01*
X191276760Y-62870801D01*
X191165690Y-62717927D01*
X191032073Y-62584310D01*
X190879199Y-62473240D01*
X190710836Y-62387454D01*
X190531118Y-62329059D01*
X190344486Y-62299500D01*
X190344481Y-62299500D01*
X190155519Y-62299500D01*
X190155514Y-62299500D01*
X189968881Y-62329059D01*
X189789163Y-62387454D01*
X189620800Y-62473240D01*
X189575584Y-62506092D01*
X189467927Y-62584310D01*
X189467925Y-62584312D01*
X189467924Y-62584312D01*
X189334312Y-62717924D01*
X189334312Y-62717925D01*
X189334310Y-62717927D01*
X189286610Y-62783579D01*
X189223240Y-62870800D01*
X189137454Y-63039163D01*
X189079059Y-63218881D01*
X189049500Y-63405513D01*
X184950500Y-63405513D01*
X184920940Y-63218881D01*
X184862545Y-63039163D01*
X184817290Y-62950347D01*
X184776760Y-62870801D01*
X184665690Y-62717927D01*
X184532073Y-62584310D01*
X184379199Y-62473240D01*
X184210836Y-62387454D01*
X184031118Y-62329059D01*
X183844486Y-62299500D01*
X183844481Y-62299500D01*
X183655519Y-62299500D01*
X183655514Y-62299500D01*
X183468881Y-62329059D01*
X183289163Y-62387454D01*
X183120800Y-62473240D01*
X183075584Y-62506092D01*
X182967927Y-62584310D01*
X182967925Y-62584312D01*
X182967924Y-62584312D01*
X182834312Y-62717924D01*
X182834312Y-62717925D01*
X182834310Y-62717927D01*
X182786610Y-62783579D01*
X182723240Y-62870800D01*
X182637454Y-63039163D01*
X182579059Y-63218881D01*
X182549500Y-63405513D01*
X180706680Y-63405513D01*
X180762051Y-63271835D01*
X180800500Y-63078541D01*
X180800500Y-62881459D01*
X180800500Y-62881456D01*
X180762052Y-62688170D01*
X180762051Y-62688169D01*
X180762051Y-62688165D01*
X180719034Y-62584312D01*
X180686635Y-62506092D01*
X180686628Y-62506079D01*
X180577139Y-62342218D01*
X180577136Y-62342214D01*
X180437785Y-62202863D01*
X180437781Y-62202860D01*
X180273920Y-62093371D01*
X180273907Y-62093364D01*
X180091839Y-62017950D01*
X180091829Y-62017947D01*
X179898543Y-61979500D01*
X179898541Y-61979500D01*
X179101459Y-61979500D01*
X179101457Y-61979500D01*
X178908170Y-62017947D01*
X178908160Y-62017950D01*
X178726092Y-62093364D01*
X178726079Y-62093371D01*
X178562218Y-62202860D01*
X178562214Y-62202863D01*
X178422863Y-62342214D01*
X178422860Y-62342218D01*
X178313371Y-62506079D01*
X178313364Y-62506092D01*
X178237950Y-62688160D01*
X178237947Y-62688170D01*
X178199500Y-62881456D01*
X178199500Y-62881459D01*
X178199500Y-63078541D01*
X178199500Y-63078543D01*
X178199499Y-63078543D01*
X158300500Y-63078543D01*
X158300500Y-63078541D01*
X158300500Y-62881459D01*
X158300500Y-62881456D01*
X158262052Y-62688170D01*
X158262051Y-62688169D01*
X158262051Y-62688165D01*
X158219034Y-62584312D01*
X158186635Y-62506092D01*
X158186628Y-62506079D01*
X158077139Y-62342218D01*
X158077136Y-62342214D01*
X157937785Y-62202863D01*
X157937781Y-62202860D01*
X157773920Y-62093371D01*
X157773907Y-62093364D01*
X157591839Y-62017950D01*
X157591829Y-62017947D01*
X157398543Y-61979500D01*
X157398541Y-61979500D01*
X156601459Y-61979500D01*
X156601457Y-61979500D01*
X156408170Y-62017947D01*
X156408160Y-62017950D01*
X156226092Y-62093364D01*
X156226079Y-62093371D01*
X156062218Y-62202860D01*
X156062214Y-62202863D01*
X155922863Y-62342214D01*
X155922860Y-62342218D01*
X155813371Y-62506079D01*
X155813364Y-62506092D01*
X155737950Y-62688160D01*
X155737947Y-62688170D01*
X155699500Y-62881456D01*
X155699500Y-62881459D01*
X155699500Y-63078541D01*
X155699500Y-63078543D01*
X155699499Y-63078543D01*
X142200500Y-63078543D01*
X142200500Y-59421153D01*
X147159500Y-59421153D01*
X147159500Y-59578846D01*
X147190261Y-59733489D01*
X147190264Y-59733501D01*
X147250602Y-59879172D01*
X147250609Y-59879185D01*
X147338210Y-60010288D01*
X147338213Y-60010292D01*
X147449707Y-60121786D01*
X147449711Y-60121789D01*
X147580814Y-60209390D01*
X147580827Y-60209397D01*
X147726498Y-60269735D01*
X147726503Y-60269737D01*
X147881153Y-60300499D01*
X147881156Y-60300500D01*
X147881158Y-60300500D01*
X148038844Y-60300500D01*
X148038845Y-60300499D01*
X148193497Y-60269737D01*
X148339179Y-60209394D01*
X148470289Y-60121789D01*
X148581789Y-60010289D01*
X148669394Y-59879179D01*
X148696974Y-59812592D01*
X148740814Y-59758191D01*
X148807108Y-59736125D01*
X148874807Y-59753403D01*
X148922418Y-59804540D01*
X148934008Y-59840646D01*
X148939397Y-59874670D01*
X149017219Y-60114184D01*
X149131557Y-60338583D01*
X149205748Y-60440697D01*
X149205748Y-60440698D01*
X149976212Y-59670234D01*
X149987482Y-59712292D01*
X150059890Y-59837708D01*
X150162292Y-59940110D01*
X150287708Y-60012518D01*
X150329765Y-60023787D01*
X149559300Y-60794250D01*
X149661416Y-60868442D01*
X149885815Y-60982780D01*
X150125330Y-61060602D01*
X150374072Y-61100000D01*
X150625928Y-61100000D01*
X150874669Y-61060602D01*
X151114184Y-60982780D01*
X151338575Y-60868446D01*
X151338581Y-60868442D01*
X151440697Y-60794250D01*
X151440698Y-60794250D01*
X151184991Y-60538543D01*
X155699499Y-60538543D01*
X155737947Y-60731829D01*
X155737950Y-60731839D01*
X155813364Y-60913907D01*
X155813371Y-60913920D01*
X155922860Y-61077781D01*
X155922863Y-61077785D01*
X156062214Y-61217136D01*
X156062218Y-61217139D01*
X156226079Y-61326628D01*
X156226092Y-61326635D01*
X156408160Y-61402049D01*
X156408165Y-61402051D01*
X156408169Y-61402051D01*
X156408170Y-61402052D01*
X156601456Y-61440500D01*
X156601459Y-61440500D01*
X157398543Y-61440500D01*
X157528582Y-61414632D01*
X157591835Y-61402051D01*
X157773914Y-61326632D01*
X157937782Y-61217139D01*
X158077139Y-61077782D01*
X158186632Y-60913914D01*
X158262051Y-60731835D01*
X158300500Y-60538543D01*
X178199499Y-60538543D01*
X178237947Y-60731829D01*
X178237950Y-60731839D01*
X178313364Y-60913907D01*
X178313371Y-60913920D01*
X178422860Y-61077781D01*
X178422863Y-61077785D01*
X178562214Y-61217136D01*
X178562218Y-61217139D01*
X178726079Y-61326628D01*
X178726092Y-61326635D01*
X178908160Y-61402049D01*
X178908165Y-61402051D01*
X178908169Y-61402051D01*
X178908170Y-61402052D01*
X179101456Y-61440500D01*
X179101459Y-61440500D01*
X179898543Y-61440500D01*
X180028582Y-61414632D01*
X180091835Y-61402051D01*
X180273914Y-61326632D01*
X180437782Y-61217139D01*
X180577139Y-61077782D01*
X180686632Y-60913914D01*
X180762051Y-60731835D01*
X180800500Y-60538541D01*
X180800500Y-60341459D01*
X180800500Y-60341456D01*
X180800499Y-60341454D01*
X180772281Y-60199590D01*
X180762052Y-60148170D01*
X180762051Y-60148169D01*
X180762051Y-60148165D01*
X180704943Y-60010292D01*
X180686635Y-59966092D01*
X180686628Y-59966079D01*
X180577139Y-59802218D01*
X180577136Y-59802214D01*
X180437785Y-59662863D01*
X180437781Y-59662860D01*
X180273920Y-59553371D01*
X180273907Y-59553364D01*
X180091839Y-59477950D01*
X180091829Y-59477947D01*
X179898543Y-59439500D01*
X179898541Y-59439500D01*
X179101459Y-59439500D01*
X179101457Y-59439500D01*
X178908170Y-59477947D01*
X178908160Y-59477950D01*
X178726092Y-59553364D01*
X178726079Y-59553371D01*
X178562218Y-59662860D01*
X178562214Y-59662863D01*
X178422863Y-59802214D01*
X178422860Y-59802218D01*
X178313371Y-59966079D01*
X178313364Y-59966092D01*
X178237950Y-60148160D01*
X178237947Y-60148170D01*
X178199500Y-60341456D01*
X178199500Y-60341459D01*
X178199500Y-60538541D01*
X178199500Y-60538543D01*
X178199499Y-60538543D01*
X158300500Y-60538543D01*
X158300500Y-60538541D01*
X158300500Y-60341459D01*
X158300500Y-60341456D01*
X158262052Y-60148170D01*
X158262051Y-60148169D01*
X158262051Y-60148165D01*
X158204943Y-60010292D01*
X158186635Y-59966092D01*
X158186628Y-59966079D01*
X158077139Y-59802218D01*
X158077136Y-59802214D01*
X157937785Y-59662863D01*
X157937781Y-59662860D01*
X157773920Y-59553371D01*
X157773907Y-59553364D01*
X157591839Y-59477950D01*
X157591829Y-59477947D01*
X157398543Y-59439500D01*
X157398541Y-59439500D01*
X156601459Y-59439500D01*
X156601457Y-59439500D01*
X156408170Y-59477947D01*
X156408160Y-59477950D01*
X156226092Y-59553364D01*
X156226079Y-59553371D01*
X156062218Y-59662860D01*
X156062214Y-59662863D01*
X155922863Y-59802214D01*
X155922860Y-59802218D01*
X155813371Y-59966079D01*
X155813364Y-59966092D01*
X155737950Y-60148160D01*
X155737947Y-60148170D01*
X155699500Y-60341456D01*
X155699500Y-60341459D01*
X155699500Y-60538541D01*
X155699500Y-60538543D01*
X155699499Y-60538543D01*
X151184991Y-60538543D01*
X150670234Y-60023787D01*
X150712292Y-60012518D01*
X150837708Y-59940110D01*
X150940110Y-59837708D01*
X151012518Y-59712292D01*
X151023787Y-59670235D01*
X151794250Y-60440698D01*
X151794250Y-60440697D01*
X151868442Y-60338581D01*
X151868446Y-60338575D01*
X151898765Y-60279072D01*
X151982780Y-60114184D01*
X152060602Y-59874669D01*
X152100000Y-59625928D01*
X152100000Y-59374071D01*
X152060602Y-59125330D01*
X151982780Y-58885815D01*
X151868442Y-58661416D01*
X151794250Y-58559301D01*
X151794250Y-58559300D01*
X151023787Y-59329764D01*
X151012518Y-59287708D01*
X150940110Y-59162292D01*
X150837708Y-59059890D01*
X150712292Y-58987482D01*
X150670232Y-58976211D01*
X151352446Y-58293999D01*
X151413769Y-58260514D01*
X151428545Y-58258222D01*
X151434700Y-58257646D01*
X151562883Y-58212793D01*
X151672150Y-58132150D01*
X151752793Y-58022883D01*
X151775219Y-57958791D01*
X151797646Y-57894702D01*
X151797646Y-57894700D01*
X151800500Y-57864270D01*
X151800500Y-57795367D01*
X151800499Y-56055739D01*
X151800499Y-56055734D01*
X151797646Y-56025300D01*
X151768743Y-55942701D01*
X151752793Y-55897117D01*
X151672150Y-55787849D01*
X151571480Y-55713552D01*
X151562883Y-55707207D01*
X151562881Y-55707206D01*
X151434701Y-55662353D01*
X151404270Y-55659500D01*
X149595739Y-55659500D01*
X149581751Y-55660811D01*
X149565300Y-55662354D01*
X149565297Y-55662354D01*
X149565296Y-55662355D01*
X149565294Y-55662355D01*
X149437117Y-55707206D01*
X149327849Y-55787849D01*
X149247206Y-55897118D01*
X149202353Y-56025297D01*
X149202353Y-56025299D01*
X149199500Y-56055729D01*
X149199500Y-57864260D01*
X149199501Y-57864266D01*
X149202354Y-57894700D01*
X149202354Y-57894702D01*
X149202355Y-57894703D01*
X149202355Y-57894705D01*
X149247206Y-58022882D01*
X149327849Y-58132150D01*
X149382483Y-58172471D01*
X149437117Y-58212793D01*
X149440081Y-58213830D01*
X149565294Y-58257645D01*
X149565298Y-58257645D01*
X149565300Y-58257646D01*
X149571449Y-58258222D01*
X149636357Y-58284079D01*
X149647554Y-58294000D01*
X150329766Y-58976212D01*
X150287708Y-58987482D01*
X150162292Y-59059890D01*
X150059890Y-59162292D01*
X149987482Y-59287708D01*
X149976212Y-59329765D01*
X149205748Y-58559300D01*
X149205747Y-58559301D01*
X149131559Y-58661413D01*
X149017219Y-58885815D01*
X148939397Y-59125329D01*
X148934008Y-59159353D01*
X148904077Y-59222487D01*
X148844765Y-59259417D01*
X148774902Y-59258418D01*
X148716671Y-59219807D01*
X148696974Y-59187405D01*
X148669397Y-59120827D01*
X148669390Y-59120814D01*
X148581789Y-58989711D01*
X148581786Y-58989707D01*
X148470292Y-58878213D01*
X148470288Y-58878210D01*
X148339185Y-58790609D01*
X148339172Y-58790602D01*
X148193501Y-58730264D01*
X148193489Y-58730261D01*
X148038845Y-58699500D01*
X148038842Y-58699500D01*
X147881158Y-58699500D01*
X147881155Y-58699500D01*
X147726510Y-58730261D01*
X147726498Y-58730264D01*
X147580827Y-58790602D01*
X147580814Y-58790609D01*
X147449711Y-58878210D01*
X147449707Y-58878213D01*
X147338213Y-58989707D01*
X147338210Y-58989711D01*
X147250609Y-59120814D01*
X147250602Y-59120827D01*
X147190264Y-59266498D01*
X147190261Y-59266510D01*
X147159500Y-59421153D01*
X142200500Y-59421153D01*
X142200500Y-56881153D01*
X147159500Y-56881153D01*
X147159500Y-57038846D01*
X147190261Y-57193489D01*
X147190264Y-57193501D01*
X147250602Y-57339172D01*
X147250609Y-57339185D01*
X147338210Y-57470288D01*
X147338213Y-57470292D01*
X147449707Y-57581786D01*
X147449711Y-57581789D01*
X147580814Y-57669390D01*
X147580827Y-57669397D01*
X147695963Y-57717087D01*
X147726503Y-57729737D01*
X147881153Y-57760499D01*
X147881156Y-57760500D01*
X147881158Y-57760500D01*
X148038844Y-57760500D01*
X148038845Y-57760499D01*
X148193497Y-57729737D01*
X148339179Y-57669394D01*
X148470289Y-57581789D01*
X148581789Y-57470289D01*
X148669394Y-57339179D01*
X148729737Y-57193497D01*
X148760500Y-57038842D01*
X148760500Y-56881158D01*
X148760500Y-56881155D01*
X148760499Y-56881153D01*
X148741472Y-56785499D01*
X148729737Y-56726503D01*
X148716461Y-56694452D01*
X148669397Y-56580827D01*
X148669390Y-56580814D01*
X148581789Y-56449711D01*
X148581786Y-56449707D01*
X148470292Y-56338213D01*
X148470288Y-56338210D01*
X148339185Y-56250609D01*
X148339172Y-56250602D01*
X148193501Y-56190264D01*
X148193489Y-56190261D01*
X148114008Y-56174451D01*
X148114007Y-56174451D01*
X148038844Y-56159500D01*
X148038842Y-56159500D01*
X147881158Y-56159500D01*
X147881155Y-56159500D01*
X147726510Y-56190261D01*
X147726498Y-56190264D01*
X147580827Y-56250602D01*
X147580814Y-56250609D01*
X147449711Y-56338210D01*
X147449707Y-56338213D01*
X147338213Y-56449707D01*
X147338210Y-56449711D01*
X147250609Y-56580814D01*
X147250602Y-56580827D01*
X147190264Y-56726498D01*
X147190261Y-56726510D01*
X147159500Y-56881153D01*
X142200500Y-56881153D01*
X142200500Y-55257682D01*
X155400000Y-55257682D01*
X155400000Y-55462317D01*
X155432009Y-55664417D01*
X155495244Y-55859031D01*
X155588140Y-56041349D01*
X155708417Y-56206894D01*
X155708417Y-56206895D01*
X155753985Y-56252463D01*
X156517037Y-55489410D01*
X156534075Y-55552993D01*
X156599901Y-55667007D01*
X156692993Y-55760099D01*
X156807007Y-55825925D01*
X156870589Y-55842962D01*
X156166406Y-56547143D01*
X156166406Y-56547144D01*
X156200967Y-56564754D01*
X156200971Y-56564755D01*
X156395582Y-56627990D01*
X156584268Y-56657875D01*
X156647403Y-56687804D01*
X156684334Y-56747116D01*
X156683336Y-56816978D01*
X156644726Y-56875211D01*
X156589062Y-56901965D01*
X156408170Y-56937947D01*
X156408160Y-56937950D01*
X156226092Y-57013364D01*
X156226079Y-57013371D01*
X156062218Y-57122860D01*
X156062214Y-57122863D01*
X155922863Y-57262214D01*
X155922860Y-57262218D01*
X155813371Y-57426079D01*
X155813364Y-57426092D01*
X155737950Y-57608160D01*
X155737947Y-57608170D01*
X155699500Y-57801456D01*
X155699500Y-57801459D01*
X155699500Y-57998541D01*
X155699500Y-57998543D01*
X155699499Y-57998543D01*
X155737947Y-58191829D01*
X155737950Y-58191839D01*
X155813364Y-58373907D01*
X155813371Y-58373920D01*
X155922860Y-58537781D01*
X155922863Y-58537785D01*
X156062214Y-58677136D01*
X156062218Y-58677139D01*
X156226079Y-58786628D01*
X156226092Y-58786635D01*
X156408160Y-58862049D01*
X156408165Y-58862051D01*
X156408169Y-58862051D01*
X156408170Y-58862052D01*
X156601456Y-58900500D01*
X156601459Y-58900500D01*
X157398543Y-58900500D01*
X157528582Y-58874632D01*
X157591835Y-58862051D01*
X157764320Y-58790606D01*
X157773907Y-58786635D01*
X157773907Y-58786634D01*
X157773914Y-58786632D01*
X157937782Y-58677139D01*
X158077139Y-58537782D01*
X158186632Y-58373914D01*
X158262051Y-58191835D01*
X158295658Y-58022883D01*
X158300500Y-57998543D01*
X178199499Y-57998543D01*
X178237947Y-58191829D01*
X178237950Y-58191839D01*
X178313364Y-58373907D01*
X178313371Y-58373920D01*
X178422860Y-58537781D01*
X178422863Y-58537785D01*
X178562214Y-58677136D01*
X178562218Y-58677139D01*
X178726079Y-58786628D01*
X178726092Y-58786635D01*
X178908160Y-58862049D01*
X178908165Y-58862051D01*
X178908169Y-58862051D01*
X178908170Y-58862052D01*
X179101456Y-58900500D01*
X179101459Y-58900500D01*
X179898543Y-58900500D01*
X179991809Y-58881947D01*
X182250000Y-58881947D01*
X182250000Y-59118052D01*
X182286934Y-59351247D01*
X182359897Y-59575802D01*
X182467087Y-59786174D01*
X182527338Y-59869104D01*
X182527340Y-59869105D01*
X183226212Y-59170233D01*
X183237482Y-59212292D01*
X183309890Y-59337708D01*
X183412292Y-59440110D01*
X183537708Y-59512518D01*
X183579765Y-59523787D01*
X182880893Y-60222658D01*
X182963828Y-60282914D01*
X183174197Y-60390102D01*
X183398752Y-60463065D01*
X183398751Y-60463065D01*
X183631948Y-60500000D01*
X183868052Y-60500000D01*
X184101247Y-60463065D01*
X184325802Y-60390102D01*
X184536163Y-60282918D01*
X184536169Y-60282914D01*
X184619104Y-60222658D01*
X184619105Y-60222658D01*
X183920233Y-59523787D01*
X183962292Y-59512518D01*
X184087708Y-59440110D01*
X184190110Y-59337708D01*
X184262518Y-59212292D01*
X184273787Y-59170234D01*
X184972658Y-59869105D01*
X184972658Y-59869104D01*
X185032914Y-59786169D01*
X185032918Y-59786163D01*
X185140102Y-59575802D01*
X185213065Y-59351247D01*
X185250000Y-59118052D01*
X185250000Y-58881947D01*
X185213065Y-58648752D01*
X185140102Y-58424197D01*
X185032914Y-58213828D01*
X184972658Y-58130894D01*
X184972658Y-58130893D01*
X184273787Y-58829765D01*
X184262518Y-58787708D01*
X184190110Y-58662292D01*
X184087708Y-58559890D01*
X183962292Y-58487482D01*
X183920234Y-58476212D01*
X184619105Y-57777340D01*
X184619104Y-57777339D01*
X184536174Y-57717087D01*
X184325802Y-57609897D01*
X184101247Y-57536934D01*
X184101248Y-57536934D01*
X183868052Y-57500000D01*
X183631948Y-57500000D01*
X183398752Y-57536934D01*
X183174197Y-57609897D01*
X182963830Y-57717084D01*
X182880894Y-57777340D01*
X183579766Y-58476212D01*
X183537708Y-58487482D01*
X183412292Y-58559890D01*
X183309890Y-58662292D01*
X183237482Y-58787708D01*
X183226212Y-58829766D01*
X182527340Y-58130894D01*
X182467084Y-58213830D01*
X182359897Y-58424197D01*
X182286934Y-58648752D01*
X182250000Y-58881947D01*
X179991809Y-58881947D01*
X180028582Y-58874632D01*
X180091835Y-58862051D01*
X180264320Y-58790606D01*
X180273907Y-58786635D01*
X180273907Y-58786634D01*
X180273914Y-58786632D01*
X180437782Y-58677139D01*
X180577139Y-58537782D01*
X180686632Y-58373914D01*
X180762051Y-58191835D01*
X180795658Y-58022883D01*
X180800500Y-57998543D01*
X180800500Y-57801456D01*
X180762052Y-57608170D01*
X180762051Y-57608169D01*
X180762051Y-57608165D01*
X180751125Y-57581786D01*
X180686635Y-57426092D01*
X180686628Y-57426079D01*
X180577139Y-57262218D01*
X180577136Y-57262214D01*
X180437785Y-57122863D01*
X180437781Y-57122860D01*
X180273920Y-57013371D01*
X180273907Y-57013364D01*
X180091839Y-56937950D01*
X180091829Y-56937947D01*
X179898543Y-56899500D01*
X179898541Y-56899500D01*
X179101459Y-56899500D01*
X179101457Y-56899500D01*
X178908170Y-56937947D01*
X178908160Y-56937950D01*
X178726092Y-57013364D01*
X178726079Y-57013371D01*
X178562218Y-57122860D01*
X178562214Y-57122863D01*
X178422863Y-57262214D01*
X178422860Y-57262218D01*
X178313371Y-57426079D01*
X178313364Y-57426092D01*
X178237950Y-57608160D01*
X178237947Y-57608170D01*
X178199500Y-57801456D01*
X178199500Y-57801459D01*
X178199500Y-57998541D01*
X178199500Y-57998543D01*
X178199499Y-57998543D01*
X158300500Y-57998543D01*
X158300500Y-57801456D01*
X158262052Y-57608170D01*
X158262051Y-57608169D01*
X158262051Y-57608165D01*
X158251125Y-57581786D01*
X158186635Y-57426092D01*
X158186628Y-57426079D01*
X158077139Y-57262218D01*
X158077136Y-57262214D01*
X157937785Y-57122863D01*
X157937781Y-57122860D01*
X157773920Y-57013371D01*
X157773907Y-57013364D01*
X157591839Y-56937950D01*
X157591829Y-56937947D01*
X157410937Y-56901965D01*
X157349026Y-56869580D01*
X157314452Y-56808864D01*
X157318192Y-56739095D01*
X157359059Y-56682423D01*
X157415731Y-56657875D01*
X157604417Y-56627989D01*
X157799028Y-56564756D01*
X157833591Y-56547143D01*
X157129410Y-55842962D01*
X157192993Y-55825925D01*
X157307007Y-55760099D01*
X157400099Y-55667007D01*
X157465925Y-55552993D01*
X157482962Y-55489410D01*
X158246015Y-56252463D01*
X158291582Y-56206895D01*
X158291582Y-56206894D01*
X158411859Y-56041349D01*
X158504755Y-55859031D01*
X158567990Y-55664417D01*
X158600000Y-55462317D01*
X158600000Y-55458543D01*
X178199499Y-55458543D01*
X178237947Y-55651829D01*
X178237950Y-55651839D01*
X178313364Y-55833907D01*
X178313371Y-55833920D01*
X178422860Y-55997781D01*
X178422863Y-55997785D01*
X178562214Y-56137136D01*
X178562218Y-56137139D01*
X178726079Y-56246628D01*
X178726092Y-56246635D01*
X178908160Y-56322049D01*
X178908165Y-56322051D01*
X178908169Y-56322051D01*
X178908170Y-56322052D01*
X179101456Y-56360500D01*
X179101459Y-56360500D01*
X179898543Y-56360500D01*
X180028582Y-56334632D01*
X180091835Y-56322051D01*
X180264320Y-56250606D01*
X180273907Y-56246635D01*
X180273907Y-56246634D01*
X180273914Y-56246632D01*
X180437782Y-56137139D01*
X180577139Y-55997782D01*
X180686632Y-55833914D01*
X180762051Y-55651835D01*
X180800500Y-55458541D01*
X180800500Y-55451304D01*
X183349500Y-55451304D01*
X183349500Y-55628695D01*
X183384103Y-55802658D01*
X183384106Y-55802667D01*
X183451983Y-55966540D01*
X183451990Y-55966553D01*
X183550535Y-56114034D01*
X183550538Y-56114038D01*
X183675961Y-56239461D01*
X183675965Y-56239464D01*
X183823446Y-56338009D01*
X183823459Y-56338016D01*
X183946363Y-56388923D01*
X183987334Y-56405894D01*
X183987336Y-56405894D01*
X183987341Y-56405896D01*
X184161304Y-56440499D01*
X184161307Y-56440500D01*
X184161309Y-56440500D01*
X184338693Y-56440500D01*
X184338694Y-56440499D01*
X184396682Y-56428964D01*
X184512658Y-56405896D01*
X184512661Y-56405894D01*
X184512666Y-56405894D01*
X184676069Y-56338211D01*
X184676540Y-56338016D01*
X184676540Y-56338015D01*
X184676547Y-56338013D01*
X184824035Y-56239464D01*
X184949464Y-56114035D01*
X185048013Y-55966547D01*
X185115894Y-55802666D01*
X185118842Y-55787849D01*
X185144372Y-55659500D01*
X185150500Y-55628691D01*
X185150500Y-55598389D01*
X186879500Y-55598389D01*
X186879500Y-55771611D01*
X186906598Y-55942701D01*
X186960127Y-56107445D01*
X187038768Y-56261788D01*
X187140586Y-56401928D01*
X187263072Y-56524414D01*
X187403212Y-56626232D01*
X187557555Y-56704873D01*
X187722299Y-56758402D01*
X187893389Y-56785500D01*
X187893390Y-56785500D01*
X188066610Y-56785500D01*
X188066611Y-56785500D01*
X188237701Y-56758402D01*
X188402445Y-56704873D01*
X188556788Y-56626232D01*
X188696928Y-56524414D01*
X188819414Y-56401928D01*
X188921232Y-56261788D01*
X188999873Y-56107445D01*
X189053402Y-55942701D01*
X189080500Y-55771611D01*
X189080500Y-55598389D01*
X189053402Y-55427299D01*
X188999873Y-55262555D01*
X188921232Y-55108212D01*
X188819414Y-54968072D01*
X188696928Y-54845586D01*
X188556788Y-54743768D01*
X188402445Y-54665127D01*
X188237701Y-54611598D01*
X188237699Y-54611597D01*
X188237698Y-54611597D01*
X188106271Y-54590781D01*
X188066611Y-54584500D01*
X187893389Y-54584500D01*
X187853728Y-54590781D01*
X187722302Y-54611597D01*
X187557552Y-54665128D01*
X187403211Y-54743768D01*
X187323256Y-54801859D01*
X187263072Y-54845586D01*
X187263070Y-54845588D01*
X187263069Y-54845588D01*
X187140588Y-54968069D01*
X187140588Y-54968070D01*
X187140586Y-54968072D01*
X187112704Y-55006448D01*
X187038768Y-55108211D01*
X186960128Y-55262552D01*
X186906597Y-55427302D01*
X186886690Y-55552993D01*
X186879500Y-55598389D01*
X185150500Y-55598389D01*
X185150500Y-55451309D01*
X185150500Y-55451306D01*
X185150499Y-55451304D01*
X185115896Y-55277341D01*
X185115893Y-55277332D01*
X185048016Y-55113459D01*
X185048009Y-55113446D01*
X184949464Y-54965965D01*
X184949461Y-54965961D01*
X184824038Y-54840538D01*
X184824034Y-54840535D01*
X184676553Y-54741990D01*
X184676540Y-54741983D01*
X184512667Y-54674106D01*
X184512658Y-54674103D01*
X184338694Y-54639500D01*
X184338691Y-54639500D01*
X184161309Y-54639500D01*
X184161306Y-54639500D01*
X183987341Y-54674103D01*
X183987332Y-54674106D01*
X183823459Y-54741983D01*
X183823446Y-54741990D01*
X183675965Y-54840535D01*
X183675961Y-54840538D01*
X183550538Y-54965961D01*
X183550535Y-54965965D01*
X183451990Y-55113446D01*
X183451983Y-55113459D01*
X183384106Y-55277332D01*
X183384103Y-55277341D01*
X183349500Y-55451304D01*
X180800500Y-55451304D01*
X180800500Y-55261459D01*
X180800500Y-55261456D01*
X180762052Y-55068170D01*
X180762051Y-55068169D01*
X180762051Y-55068165D01*
X180736487Y-55006448D01*
X180686635Y-54886092D01*
X180686628Y-54886079D01*
X180577139Y-54722218D01*
X180577136Y-54722214D01*
X180437785Y-54582863D01*
X180437781Y-54582860D01*
X180273920Y-54473371D01*
X180273907Y-54473364D01*
X180091839Y-54397950D01*
X180091829Y-54397947D01*
X179898543Y-54359500D01*
X179898541Y-54359500D01*
X179101459Y-54359500D01*
X179101457Y-54359500D01*
X178908170Y-54397947D01*
X178908160Y-54397950D01*
X178726092Y-54473364D01*
X178726079Y-54473371D01*
X178562218Y-54582860D01*
X178562214Y-54582863D01*
X178422863Y-54722214D01*
X178422860Y-54722218D01*
X178313371Y-54886079D01*
X178313364Y-54886092D01*
X178237950Y-55068160D01*
X178237947Y-55068170D01*
X178199500Y-55261456D01*
X178199500Y-55261459D01*
X178199500Y-55458541D01*
X178199500Y-55458543D01*
X178199499Y-55458543D01*
X158600000Y-55458543D01*
X158600000Y-55257682D01*
X158567990Y-55055582D01*
X158504755Y-54860968D01*
X158411859Y-54678650D01*
X158291582Y-54513105D01*
X158291582Y-54513104D01*
X158246015Y-54467537D01*
X157482962Y-55230589D01*
X157465925Y-55167007D01*
X157400099Y-55052993D01*
X157307007Y-54959901D01*
X157192993Y-54894075D01*
X157129410Y-54877037D01*
X157833592Y-54172855D01*
X157799025Y-54155243D01*
X157604417Y-54092009D01*
X157548139Y-54083096D01*
X157415731Y-54062124D01*
X157352596Y-54032194D01*
X157337458Y-54007882D01*
X183595669Y-54007882D01*
X183595670Y-54007883D01*
X183621059Y-54026329D01*
X183789362Y-54112085D01*
X183968997Y-54170451D01*
X184155553Y-54200000D01*
X184344447Y-54200000D01*
X184531002Y-54170451D01*
X184710637Y-54112085D01*
X184878937Y-54026331D01*
X184904328Y-54007883D01*
X184904328Y-54007882D01*
X184250001Y-53353554D01*
X184250000Y-53353554D01*
X183595669Y-54007882D01*
X157337458Y-54007882D01*
X157315665Y-53972883D01*
X157316663Y-53903020D01*
X157355273Y-53844788D01*
X157410938Y-53818034D01*
X157591835Y-53782051D01*
X157773914Y-53706632D01*
X157937782Y-53597139D01*
X158077139Y-53457782D01*
X158186632Y-53293914D01*
X158262051Y-53111835D01*
X158284297Y-52999999D01*
X158300500Y-52918543D01*
X178199499Y-52918543D01*
X178237947Y-53111829D01*
X178237950Y-53111839D01*
X178313364Y-53293907D01*
X178313371Y-53293920D01*
X178422860Y-53457781D01*
X178422863Y-53457785D01*
X178562214Y-53597136D01*
X178562218Y-53597139D01*
X178726079Y-53706628D01*
X178726092Y-53706635D01*
X178908160Y-53782049D01*
X178908165Y-53782051D01*
X178908169Y-53782051D01*
X178908170Y-53782052D01*
X179101456Y-53820500D01*
X179101459Y-53820500D01*
X179898543Y-53820500D01*
X180028582Y-53794632D01*
X180091835Y-53782051D01*
X180273914Y-53706632D01*
X180437782Y-53597139D01*
X180577139Y-53457782D01*
X180686632Y-53293914D01*
X180762051Y-53111835D01*
X180784297Y-52999999D01*
X180800500Y-52918543D01*
X180800500Y-52905552D01*
X183050000Y-52905552D01*
X183050000Y-53094447D01*
X183079548Y-53281002D01*
X183137914Y-53460637D01*
X183223666Y-53628933D01*
X183242116Y-53654328D01*
X183896446Y-53000000D01*
X183896446Y-52999999D01*
X183850369Y-52953922D01*
X183900000Y-52953922D01*
X183900000Y-53046078D01*
X183923852Y-53135095D01*
X183969930Y-53214905D01*
X184035095Y-53280070D01*
X184114905Y-53326148D01*
X184203922Y-53350000D01*
X184296078Y-53350000D01*
X184385095Y-53326148D01*
X184464905Y-53280070D01*
X184530070Y-53214905D01*
X184576148Y-53135095D01*
X184600000Y-53046078D01*
X184600000Y-52999999D01*
X184603554Y-52999999D01*
X184603554Y-53000000D01*
X185257882Y-53654328D01*
X185257883Y-53654328D01*
X185276331Y-53628937D01*
X185362085Y-53460637D01*
X185420451Y-53281002D01*
X185450000Y-53094447D01*
X185450000Y-52905552D01*
X185420451Y-52718997D01*
X185362085Y-52539362D01*
X185276329Y-52371059D01*
X185257883Y-52345670D01*
X185257882Y-52345669D01*
X184603554Y-52999999D01*
X184600000Y-52999999D01*
X184600000Y-52953922D01*
X184576148Y-52864905D01*
X184530070Y-52785095D01*
X184464905Y-52719930D01*
X184385095Y-52673852D01*
X184296078Y-52650000D01*
X184203922Y-52650000D01*
X184114905Y-52673852D01*
X184035095Y-52719930D01*
X183969930Y-52785095D01*
X183923852Y-52864905D01*
X183900000Y-52953922D01*
X183850369Y-52953922D01*
X183242116Y-52345669D01*
X183242116Y-52345670D01*
X183223669Y-52371060D01*
X183137914Y-52539362D01*
X183079548Y-52718997D01*
X183050000Y-52905552D01*
X180800500Y-52905552D01*
X180800500Y-52721456D01*
X180762052Y-52528170D01*
X180762051Y-52528169D01*
X180762051Y-52528165D01*
X180750385Y-52500000D01*
X180686635Y-52346092D01*
X180686628Y-52346079D01*
X180577139Y-52182218D01*
X180577136Y-52182214D01*
X180437785Y-52042863D01*
X180437781Y-52042860D01*
X180361838Y-51992116D01*
X183595669Y-51992116D01*
X184250000Y-52646446D01*
X184250001Y-52646446D01*
X184904328Y-51992116D01*
X184878933Y-51973666D01*
X184710637Y-51887914D01*
X184531002Y-51829548D01*
X184344447Y-51800000D01*
X184155553Y-51800000D01*
X183968997Y-51829548D01*
X183789362Y-51887914D01*
X183621060Y-51973669D01*
X183595670Y-51992116D01*
X183595669Y-51992116D01*
X180361838Y-51992116D01*
X180273920Y-51933371D01*
X180273907Y-51933364D01*
X180091839Y-51857950D01*
X180091829Y-51857947D01*
X179898543Y-51819500D01*
X179898541Y-51819500D01*
X179101459Y-51819500D01*
X179101457Y-51819500D01*
X178908170Y-51857947D01*
X178908160Y-51857950D01*
X178726092Y-51933364D01*
X178726079Y-51933371D01*
X178562218Y-52042860D01*
X178562214Y-52042863D01*
X178422863Y-52182214D01*
X178422860Y-52182218D01*
X178313371Y-52346079D01*
X178313364Y-52346092D01*
X178237950Y-52528160D01*
X178237947Y-52528170D01*
X178199500Y-52721456D01*
X178199500Y-52721459D01*
X178199500Y-52918541D01*
X178199500Y-52918543D01*
X178199499Y-52918543D01*
X158300500Y-52918543D01*
X158300500Y-52721456D01*
X158262052Y-52528170D01*
X158262051Y-52528169D01*
X158262051Y-52528165D01*
X158250385Y-52500000D01*
X158186635Y-52346092D01*
X158186628Y-52346079D01*
X158077139Y-52182218D01*
X158077136Y-52182214D01*
X157937785Y-52042863D01*
X157937781Y-52042860D01*
X157773920Y-51933371D01*
X157773907Y-51933364D01*
X157591839Y-51857950D01*
X157591829Y-51857947D01*
X157398543Y-51819500D01*
X157398541Y-51819500D01*
X156601459Y-51819500D01*
X156601457Y-51819500D01*
X156408170Y-51857947D01*
X156408160Y-51857950D01*
X156226092Y-51933364D01*
X156226079Y-51933371D01*
X156062218Y-52042860D01*
X156062214Y-52042863D01*
X155922863Y-52182214D01*
X155922860Y-52182218D01*
X155813371Y-52346079D01*
X155813364Y-52346092D01*
X155737950Y-52528160D01*
X155737947Y-52528170D01*
X155699500Y-52721456D01*
X155699500Y-52721459D01*
X155699500Y-52918541D01*
X155699500Y-52918543D01*
X155699499Y-52918543D01*
X155737947Y-53111829D01*
X155737950Y-53111839D01*
X155813364Y-53293907D01*
X155813371Y-53293920D01*
X155922860Y-53457781D01*
X155922863Y-53457785D01*
X156062214Y-53597136D01*
X156062218Y-53597139D01*
X156226079Y-53706628D01*
X156226092Y-53706635D01*
X156408160Y-53782049D01*
X156408165Y-53782051D01*
X156540674Y-53808409D01*
X156589061Y-53818034D01*
X156650972Y-53850419D01*
X156685546Y-53911134D01*
X156681807Y-53980904D01*
X156640940Y-54037576D01*
X156584269Y-54062124D01*
X156395581Y-54092010D01*
X156200972Y-54155243D01*
X156200965Y-54155246D01*
X156166406Y-54172854D01*
X156870589Y-54877037D01*
X156807007Y-54894075D01*
X156692993Y-54959901D01*
X156599901Y-55052993D01*
X156534075Y-55167007D01*
X156517037Y-55230589D01*
X155753985Y-54467537D01*
X155708417Y-54513104D01*
X155708417Y-54513105D01*
X155588140Y-54678650D01*
X155495244Y-54860968D01*
X155432009Y-55055582D01*
X155400000Y-55257682D01*
X142200500Y-55257682D01*
X142200500Y-52688389D01*
X144374500Y-52688389D01*
X144374500Y-52811610D01*
X144398535Y-52932444D01*
X144398538Y-52932454D01*
X144445687Y-53046283D01*
X144445692Y-53046292D01*
X144514141Y-53148732D01*
X144514144Y-53148736D01*
X144601263Y-53235855D01*
X144601267Y-53235858D01*
X144703707Y-53304307D01*
X144703713Y-53304310D01*
X144703714Y-53304311D01*
X144817548Y-53351463D01*
X144938389Y-53375499D01*
X144938393Y-53375500D01*
X144938394Y-53375500D01*
X145061607Y-53375500D01*
X145061608Y-53375499D01*
X145182452Y-53351463D01*
X145296286Y-53304311D01*
X145398733Y-53235858D01*
X145398736Y-53235855D01*
X145412319Y-53222273D01*
X145473642Y-53188788D01*
X145543334Y-53193772D01*
X145587681Y-53222273D01*
X145601263Y-53235855D01*
X145601267Y-53235858D01*
X145703707Y-53304307D01*
X145703713Y-53304310D01*
X145703714Y-53304311D01*
X145817548Y-53351463D01*
X145938389Y-53375499D01*
X145938393Y-53375500D01*
X145938394Y-53375500D01*
X146061607Y-53375500D01*
X146061608Y-53375499D01*
X146182452Y-53351463D01*
X146296286Y-53304311D01*
X146398733Y-53235858D01*
X146398736Y-53235855D01*
X146412319Y-53222273D01*
X146473642Y-53188788D01*
X146543334Y-53193772D01*
X146587681Y-53222273D01*
X146601263Y-53235855D01*
X146601267Y-53235858D01*
X146703707Y-53304307D01*
X146703713Y-53304310D01*
X146703714Y-53304311D01*
X146817548Y-53351463D01*
X146938389Y-53375499D01*
X146938393Y-53375500D01*
X146938394Y-53375500D01*
X147061607Y-53375500D01*
X147061608Y-53375499D01*
X147182452Y-53351463D01*
X147296286Y-53304311D01*
X147398733Y-53235858D01*
X147398736Y-53235855D01*
X147412319Y-53222273D01*
X147473642Y-53188788D01*
X147543334Y-53193772D01*
X147587681Y-53222273D01*
X147601263Y-53235855D01*
X147601267Y-53235858D01*
X147703707Y-53304307D01*
X147703713Y-53304310D01*
X147703714Y-53304311D01*
X147817548Y-53351463D01*
X147938389Y-53375499D01*
X147938393Y-53375500D01*
X147938394Y-53375500D01*
X148061607Y-53375500D01*
X148061608Y-53375499D01*
X148182452Y-53351463D01*
X148296286Y-53304311D01*
X148398733Y-53235858D01*
X148398736Y-53235855D01*
X148412319Y-53222273D01*
X148473642Y-53188788D01*
X148543334Y-53193772D01*
X148587681Y-53222273D01*
X148601263Y-53235855D01*
X148601267Y-53235858D01*
X148703707Y-53304307D01*
X148703713Y-53304310D01*
X148703714Y-53304311D01*
X148817548Y-53351463D01*
X148938389Y-53375499D01*
X148938393Y-53375500D01*
X148938394Y-53375500D01*
X149061607Y-53375500D01*
X149061608Y-53375499D01*
X149182452Y-53351463D01*
X149296286Y-53304311D01*
X149398733Y-53235858D01*
X149398736Y-53235855D01*
X149412319Y-53222273D01*
X149473642Y-53188788D01*
X149543334Y-53193772D01*
X149587681Y-53222273D01*
X149601263Y-53235855D01*
X149601267Y-53235858D01*
X149703707Y-53304307D01*
X149703713Y-53304310D01*
X149703714Y-53304311D01*
X149817548Y-53351463D01*
X149938389Y-53375499D01*
X149938393Y-53375500D01*
X149938394Y-53375500D01*
X150061607Y-53375500D01*
X150061608Y-53375499D01*
X150182452Y-53351463D01*
X150296286Y-53304311D01*
X150398733Y-53235858D01*
X150398736Y-53235855D01*
X150412319Y-53222273D01*
X150473642Y-53188788D01*
X150543334Y-53193772D01*
X150587681Y-53222273D01*
X150601263Y-53235855D01*
X150601267Y-53235858D01*
X150703707Y-53304307D01*
X150703713Y-53304310D01*
X150703714Y-53304311D01*
X150817548Y-53351463D01*
X150938389Y-53375499D01*
X150938393Y-53375500D01*
X151038444Y-53375500D01*
X151105483Y-53395185D01*
X151137710Y-53425189D01*
X151217809Y-53532187D01*
X151217812Y-53532190D01*
X151332906Y-53618350D01*
X151332913Y-53618354D01*
X151467620Y-53668596D01*
X151467627Y-53668598D01*
X151527155Y-53674999D01*
X151527172Y-53675000D01*
X151750000Y-53675000D01*
X152250000Y-53675000D01*
X152472828Y-53675000D01*
X152472844Y-53674999D01*
X152532372Y-53668598D01*
X152532379Y-53668596D01*
X152667086Y-53618354D01*
X152667093Y-53618350D01*
X152782187Y-53532190D01*
X152782190Y-53532187D01*
X152868350Y-53417093D01*
X152868354Y-53417086D01*
X152918596Y-53282379D01*
X152918598Y-53282372D01*
X152924999Y-53222844D01*
X152925000Y-53222827D01*
X152925000Y-53000000D01*
X152250000Y-53000000D01*
X152250000Y-53675000D01*
X151750000Y-53675000D01*
X151750000Y-52799728D01*
X151788060Y-52891614D01*
X151858386Y-52961940D01*
X151950272Y-53000000D01*
X152049728Y-53000000D01*
X152141614Y-52961940D01*
X152211940Y-52891614D01*
X152250000Y-52799728D01*
X152250000Y-52700272D01*
X152211940Y-52608386D01*
X152141614Y-52538060D01*
X152049728Y-52500000D01*
X152250000Y-52500000D01*
X152925000Y-52500000D01*
X152925000Y-52277172D01*
X152924999Y-52277155D01*
X152918598Y-52217627D01*
X152918596Y-52217620D01*
X152868354Y-52082913D01*
X152868350Y-52082906D01*
X152782190Y-51967812D01*
X152782187Y-51967809D01*
X152667093Y-51881649D01*
X152667086Y-51881645D01*
X152532379Y-51831403D01*
X152532372Y-51831401D01*
X152472844Y-51825000D01*
X152250000Y-51825000D01*
X152250000Y-52500000D01*
X152049728Y-52500000D01*
X151950272Y-52500000D01*
X151858386Y-52538060D01*
X151788060Y-52608386D01*
X151750000Y-52700272D01*
X151750000Y-51825000D01*
X151527155Y-51825000D01*
X151467627Y-51831401D01*
X151467620Y-51831403D01*
X151332913Y-51881645D01*
X151332906Y-51881649D01*
X151217812Y-51967809D01*
X151217809Y-51967812D01*
X151137710Y-52074811D01*
X151081777Y-52116682D01*
X151038444Y-52124500D01*
X150938389Y-52124500D01*
X150817555Y-52148535D01*
X150817545Y-52148538D01*
X150703716Y-52195687D01*
X150703707Y-52195692D01*
X150601267Y-52264141D01*
X150601263Y-52264144D01*
X150587681Y-52277727D01*
X150526358Y-52311212D01*
X150456666Y-52306228D01*
X150412319Y-52277727D01*
X150398736Y-52264144D01*
X150398732Y-52264141D01*
X150296292Y-52195692D01*
X150296283Y-52195687D01*
X150182454Y-52148538D01*
X150182455Y-52148538D01*
X150182452Y-52148537D01*
X150182448Y-52148536D01*
X150182444Y-52148535D01*
X150061610Y-52124500D01*
X150061606Y-52124500D01*
X149938394Y-52124500D01*
X149938389Y-52124500D01*
X149817555Y-52148535D01*
X149817545Y-52148538D01*
X149703716Y-52195687D01*
X149703707Y-52195692D01*
X149601267Y-52264141D01*
X149601263Y-52264144D01*
X149587681Y-52277727D01*
X149526358Y-52311212D01*
X149456666Y-52306228D01*
X149412319Y-52277727D01*
X149398736Y-52264144D01*
X149398732Y-52264141D01*
X149296292Y-52195692D01*
X149296283Y-52195687D01*
X149182454Y-52148538D01*
X149182455Y-52148538D01*
X149182452Y-52148537D01*
X149182448Y-52148536D01*
X149182444Y-52148535D01*
X149061610Y-52124500D01*
X149061606Y-52124500D01*
X148938394Y-52124500D01*
X148938389Y-52124500D01*
X148817555Y-52148535D01*
X148817545Y-52148538D01*
X148703716Y-52195687D01*
X148703707Y-52195692D01*
X148601267Y-52264141D01*
X148601263Y-52264144D01*
X148587681Y-52277727D01*
X148526358Y-52311212D01*
X148456666Y-52306228D01*
X148412319Y-52277727D01*
X148398736Y-52264144D01*
X148398732Y-52264141D01*
X148296292Y-52195692D01*
X148296283Y-52195687D01*
X148182454Y-52148538D01*
X148182455Y-52148538D01*
X148182452Y-52148537D01*
X148182448Y-52148536D01*
X148182444Y-52148535D01*
X148061610Y-52124500D01*
X148061606Y-52124500D01*
X147938394Y-52124500D01*
X147938389Y-52124500D01*
X147817555Y-52148535D01*
X147817545Y-52148538D01*
X147703716Y-52195687D01*
X147703707Y-52195692D01*
X147601267Y-52264141D01*
X147601263Y-52264144D01*
X147587681Y-52277727D01*
X147526358Y-52311212D01*
X147456666Y-52306228D01*
X147412319Y-52277727D01*
X147398736Y-52264144D01*
X147398732Y-52264141D01*
X147296292Y-52195692D01*
X147296283Y-52195687D01*
X147182454Y-52148538D01*
X147182455Y-52148538D01*
X147182452Y-52148537D01*
X147182448Y-52148536D01*
X147182444Y-52148535D01*
X147061610Y-52124500D01*
X147061606Y-52124500D01*
X146938394Y-52124500D01*
X146938389Y-52124500D01*
X146817555Y-52148535D01*
X146817545Y-52148538D01*
X146703716Y-52195687D01*
X146703707Y-52195692D01*
X146601267Y-52264141D01*
X146601263Y-52264144D01*
X146587681Y-52277727D01*
X146526358Y-52311212D01*
X146456666Y-52306228D01*
X146412319Y-52277727D01*
X146398736Y-52264144D01*
X146398732Y-52264141D01*
X146296292Y-52195692D01*
X146296283Y-52195687D01*
X146182454Y-52148538D01*
X146182455Y-52148538D01*
X146182452Y-52148537D01*
X146182448Y-52148536D01*
X146182444Y-52148535D01*
X146061610Y-52124500D01*
X146061606Y-52124500D01*
X145938394Y-52124500D01*
X145938389Y-52124500D01*
X145817555Y-52148535D01*
X145817545Y-52148538D01*
X145703716Y-52195687D01*
X145703707Y-52195692D01*
X145601267Y-52264141D01*
X145601263Y-52264144D01*
X145587681Y-52277727D01*
X145526358Y-52311212D01*
X145456666Y-52306228D01*
X145412319Y-52277727D01*
X145398736Y-52264144D01*
X145398732Y-52264141D01*
X145296292Y-52195692D01*
X145296283Y-52195687D01*
X145182454Y-52148538D01*
X145182455Y-52148538D01*
X145182452Y-52148537D01*
X145182448Y-52148536D01*
X145182444Y-52148535D01*
X145061610Y-52124500D01*
X145061606Y-52124500D01*
X144938394Y-52124500D01*
X144938389Y-52124500D01*
X144817555Y-52148535D01*
X144817545Y-52148538D01*
X144703716Y-52195687D01*
X144703707Y-52195692D01*
X144601267Y-52264141D01*
X144601263Y-52264144D01*
X144514144Y-52351263D01*
X144514141Y-52351267D01*
X144445692Y-52453707D01*
X144445687Y-52453716D01*
X144398538Y-52567545D01*
X144398535Y-52567555D01*
X144374500Y-52688389D01*
X142200500Y-52688389D01*
X142200500Y-46893713D01*
X143649500Y-46893713D01*
X143649500Y-47106286D01*
X143682753Y-47316239D01*
X143748444Y-47518414D01*
X143844951Y-47707820D01*
X143969890Y-47879786D01*
X144120213Y-48030109D01*
X144292179Y-48155048D01*
X144292181Y-48155049D01*
X144292184Y-48155051D01*
X144481588Y-48251557D01*
X144683757Y-48317246D01*
X144893713Y-48350500D01*
X144893714Y-48350500D01*
X145106286Y-48350500D01*
X145106287Y-48350500D01*
X145316243Y-48317246D01*
X145518412Y-48251557D01*
X145707816Y-48155051D01*
X145729789Y-48139086D01*
X145879786Y-48030109D01*
X145879788Y-48030106D01*
X145879792Y-48030104D01*
X146030104Y-47879792D01*
X146030106Y-47879788D01*
X146030109Y-47879786D01*
X146155048Y-47707820D01*
X146155047Y-47707820D01*
X146155051Y-47707816D01*
X146251557Y-47518412D01*
X146317246Y-47316243D01*
X146350500Y-47106287D01*
X146350500Y-46893713D01*
X187649500Y-46893713D01*
X187649500Y-47106286D01*
X187682753Y-47316239D01*
X187748444Y-47518414D01*
X187844951Y-47707820D01*
X187969890Y-47879786D01*
X188120213Y-48030109D01*
X188292179Y-48155048D01*
X188292181Y-48155049D01*
X188292184Y-48155051D01*
X188481588Y-48251557D01*
X188683757Y-48317246D01*
X188893713Y-48350500D01*
X188893714Y-48350500D01*
X189106286Y-48350500D01*
X189106287Y-48350500D01*
X189316243Y-48317246D01*
X189518412Y-48251557D01*
X189707816Y-48155051D01*
X189729789Y-48139086D01*
X189879786Y-48030109D01*
X189879788Y-48030106D01*
X189879792Y-48030104D01*
X190030104Y-47879792D01*
X190030106Y-47879788D01*
X190030109Y-47879786D01*
X190155048Y-47707820D01*
X190155047Y-47707820D01*
X190155051Y-47707816D01*
X190251557Y-47518412D01*
X190317246Y-47316243D01*
X190350500Y-47106287D01*
X190350500Y-46893713D01*
X190317246Y-46683757D01*
X190251557Y-46481588D01*
X190155051Y-46292184D01*
X190155049Y-46292181D01*
X190155048Y-46292179D01*
X190030109Y-46120213D01*
X189879786Y-45969890D01*
X189707820Y-45844951D01*
X189518414Y-45748444D01*
X189518413Y-45748443D01*
X189518412Y-45748443D01*
X189316243Y-45682754D01*
X189316241Y-45682753D01*
X189316240Y-45682753D01*
X189154957Y-45657208D01*
X189106287Y-45649500D01*
X188893713Y-45649500D01*
X188845042Y-45657208D01*
X188683760Y-45682753D01*
X188481585Y-45748444D01*
X188292179Y-45844951D01*
X188120213Y-45969890D01*
X187969890Y-46120213D01*
X187844951Y-46292179D01*
X187748444Y-46481585D01*
X187682753Y-46683760D01*
X187649500Y-46893713D01*
X146350500Y-46893713D01*
X146317246Y-46683757D01*
X146251557Y-46481588D01*
X146155051Y-46292184D01*
X146155049Y-46292181D01*
X146155048Y-46292179D01*
X146030109Y-46120213D01*
X145879786Y-45969890D01*
X145707820Y-45844951D01*
X145518414Y-45748444D01*
X145518413Y-45748443D01*
X145518412Y-45748443D01*
X145316243Y-45682754D01*
X145316241Y-45682753D01*
X145316240Y-45682753D01*
X145154957Y-45657208D01*
X145106287Y-45649500D01*
X144893713Y-45649500D01*
X144845042Y-45657208D01*
X144683760Y-45682753D01*
X144481585Y-45748444D01*
X144292179Y-45844951D01*
X144120213Y-45969890D01*
X143969890Y-46120213D01*
X143844951Y-46292179D01*
X143748444Y-46481585D01*
X143682753Y-46683760D01*
X143649500Y-46893713D01*
X142200500Y-46893713D01*
X142200500Y-44324500D01*
X142220185Y-44257461D01*
X142272989Y-44211706D01*
X142324500Y-44200500D01*
X191675500Y-44200500D01*
X191742539Y-44220185D01*
G37*
%TD.AperFunction*%
%TD*%
M02*
