%TF.GenerationSoftware,KiCad,Pcbnew,9.0.7*%
%TF.CreationDate,2026-10-09T22:27:48-07:00*%
%TF.ProjectId,esp8266_board,65737038-3236-4365-9f62-6f6172642e6b,rev?*%
%TF.SameCoordinates,Original*%
%TF.FileFunction,Copper,L1,Top*%
%TF.FilePolarity,Positive*%
%FSLAX46Y46*%
G04 Gerber Fmt 4.6, Leading zero omitted, Abs format (unit mm)*
G04 Created by KiCad (PCBNEW 9.0.7) date 2026-10-09 22:27:48*
%MOMM*%
%LPD*%
G01*
G04 APERTURE LIST*
G04 Aperture macros list*
%AMRoundRect*
0 Rectangle with rounded corners*
0 $1 Rounding radius*
0 $2 $3 $4 $5 $6 $7 $8 $9 X,Y pos of 4 corners*
0 Add a 4 corners polygon primitive as box body*
4,1,4,$2,$3,$4,$5,$6,$7,$8,$9,$2,$3,0*
0 Add four circle primitives for the rounded corners*
1,1,$1+$1,$2,$3*
1,1,$1+$1,$4,$5*
1,1,$1+$1,$6,$7*
1,1,$1+$1,$8,$9*
0 Add four rect primitives between the rounded corners*
20,1,$1+$1,$2,$3,$4,$5,0*
20,1,$1+$1,$4,$5,$6,$7,0*
20,1,$1+$1,$6,$7,$8,$9,0*
20,1,$1+$1,$8,$9,$2,$3,0*%
G04 Aperture macros list end*
%TA.AperFunction,ComponentPad*%
%ADD10O,2.200000X1.600000*%
%TD*%
%TA.AperFunction,ComponentPad*%
%ADD11R,2.200000X1.600000*%
%TD*%
%TA.AperFunction,ComponentPad*%
%ADD12RoundRect,0.250000X-0.750000X0.750000X-0.750000X-0.750000X0.750000X-0.750000X0.750000X0.750000X0*%
%TD*%
%TA.AperFunction,ComponentPad*%
%ADD13C,2.000000*%
%TD*%
%TA.AperFunction,ComponentPad*%
%ADD14R,1.700000X1.700000*%
%TD*%
%TA.AperFunction,ComponentPad*%
%ADD15C,1.700000*%
%TD*%
%TA.AperFunction,ComponentPad*%
%ADD16RoundRect,0.250000X-0.750000X-0.750000X0.750000X-0.750000X0.750000X0.750000X-0.750000X0.750000X0*%
%TD*%
%TA.AperFunction,ComponentPad*%
%ADD17R,1.800000X1.800000*%
%TD*%
%TA.AperFunction,ComponentPad*%
%ADD18C,1.800000*%
%TD*%
%TA.AperFunction,ComponentPad*%
%ADD19C,1.400000*%
%TD*%
%TA.AperFunction,Conductor*%
%ADD20C,0.200000*%
%TD*%
G04 APERTURE END LIST*
D10*
%TO.P,U1,16,TX*%
%TO.N,Net-(J1-Pin_4)*%
X157000000Y-70600000D03*
%TO.P,U1,15,RX*%
%TO.N,Net-(J1-Pin_3)*%
X157000000Y-68060000D03*
%TO.P,U1,14,D1*%
%TO.N,Net-(J1-Pin_2)*%
X157000000Y-65520000D03*
%TO.P,U1,13,D2*%
%TO.N,Net-(J1-Pin_1)*%
X157000000Y-62980000D03*
%TO.P,U1,12,D3*%
%TO.N,Net-(J2-Pin_2)*%
X157000000Y-60440000D03*
%TO.P,U1,11,D4*%
%TO.N,Net-(J2-Pin_3)*%
X157000000Y-57900000D03*
%TO.P,U1,10,GND*%
%TO.N,GND*%
X157000000Y-55360000D03*
%TO.P,U1,9,5V*%
%TO.N,Net-(J2-Pin_8)*%
X157000000Y-52820000D03*
%TO.P,U1,8,3V3*%
%TO.N,unconnected-(U1-3V3-Pad8)*%
X179500000Y-52820000D03*
%TO.P,U1,7,D8*%
%TO.N,Net-(D1-A)*%
X179500000Y-55360000D03*
%TO.P,U1,6,D7*%
%TO.N,Net-(U1-D7)*%
X179500000Y-57900000D03*
%TO.P,U1,5,D6*%
%TO.N,Net-(J2-Pin_7)*%
X179500000Y-60440000D03*
%TO.P,U1,4,D5*%
%TO.N,Net-(J2-Pin_6)*%
X179500000Y-62980000D03*
%TO.P,U1,3,D0*%
%TO.N,Net-(J2-Pin_5)*%
X179500000Y-65520000D03*
%TO.P,U1,2,A0*%
%TO.N,Net-(J2-Pin_4)*%
X179500000Y-68060000D03*
D11*
%TO.P,U1,1,RST*%
%TO.N,Net-(U1-RST)*%
X179500000Y-70600000D03*
%TD*%
D12*
%TO.P,J3,1,Pin_1*%
%TO.N,Net-(J2-Pin_8)*%
X146500000Y-51960000D03*
D13*
%TO.P,J3,2,Pin_2*%
%TO.N,GND*%
X146500000Y-54500000D03*
%TD*%
D14*
%TO.P,J2,1,Pin_1*%
%TO.N,GND*%
X152120000Y-63580000D03*
D15*
%TO.P,J2,2,Pin_2*%
%TO.N,Net-(J2-Pin_2)*%
X152120000Y-61040000D03*
%TO.P,J2,3,Pin_3*%
%TO.N,Net-(J2-Pin_3)*%
X152120000Y-58500000D03*
%TO.P,J2,4,Pin_4*%
%TO.N,Net-(J2-Pin_4)*%
X152120000Y-55960000D03*
%TO.P,J2,5,Pin_5*%
%TO.N,Net-(J2-Pin_5)*%
X152120000Y-53420000D03*
%TO.P,J2,6,Pin_6*%
%TO.N,Net-(J2-Pin_6)*%
X152120000Y-50880000D03*
%TO.P,J2,7,Pin_7*%
%TO.N,Net-(J2-Pin_7)*%
X152120000Y-48340000D03*
%TO.P,J2,8,Pin_8*%
%TO.N,Net-(J2-Pin_8)*%
X152120000Y-45800000D03*
%TD*%
D16*
%TO.P,J1,1,Pin_1*%
%TO.N,Net-(J1-Pin_1)*%
X145420000Y-69000000D03*
D13*
%TO.P,J1,2,Pin_2*%
%TO.N,Net-(J1-Pin_2)*%
X147960000Y-69000000D03*
%TO.P,J1,3,Pin_3*%
%TO.N,Net-(J1-Pin_3)*%
X150500000Y-69000000D03*
%TO.P,J1,4,Pin_4*%
%TO.N,Net-(J1-Pin_4)*%
X153040000Y-69000000D03*
%TD*%
D17*
%TO.P,D1,1,K*%
%TO.N,Net-(D1-K)*%
X189775000Y-54000000D03*
D18*
%TO.P,D1,2,A*%
%TO.N,Net-(D1-A)*%
X187235000Y-54000000D03*
%TD*%
D19*
%TO.P,R1,1*%
%TO.N,GND*%
X183500000Y-52780000D03*
%TO.P,R1,2*%
%TO.N,Net-(D1-K)*%
X183500000Y-55320000D03*
%TD*%
D13*
%TO.P,SW2,1,1*%
%TO.N,GND*%
X183750000Y-67250000D03*
X190250000Y-67250000D03*
%TO.P,SW2,2,2*%
%TO.N,Net-(U1-RST)*%
X183750000Y-71750000D03*
X190250000Y-71750000D03*
%TD*%
%TO.P,SW1,1,1*%
%TO.N,GND*%
X183750000Y-59000000D03*
X190250000Y-59000000D03*
%TO.P,SW1,2,2*%
%TO.N,Net-(U1-D7)*%
X183750000Y-63500000D03*
X190250000Y-63500000D03*
%TD*%
D20*
%TO.N,Net-(J1-Pin_1)*%
X157000000Y-62980000D02*
X157000000Y-63000000D01*
X157000000Y-63000000D02*
X153455000Y-66545000D01*
X153455000Y-66545000D02*
X147875000Y-66545000D01*
X147875000Y-66545000D02*
X145420000Y-69000000D01*
%TO.N,Net-(J1-Pin_2)*%
X156480000Y-65520000D02*
X155000000Y-67000000D01*
X157000000Y-65520000D02*
X156480000Y-65520000D01*
X155000000Y-67000000D02*
X149960000Y-67000000D01*
X149960000Y-67000000D02*
X147960000Y-69000000D01*
%TO.N,Net-(J1-Pin_3)*%
X156440000Y-67500000D02*
X152000000Y-67500000D01*
X157000000Y-68060000D02*
X156440000Y-67500000D01*
X152000000Y-67500000D02*
X150500000Y-69000000D01*
%TO.N,Net-(J1-Pin_4)*%
X157000000Y-70600000D02*
X154640000Y-70600000D01*
X154640000Y-70600000D02*
X153040000Y-69000000D01*
%TO.N,Net-(J2-Pin_2)*%
X157000000Y-60440000D02*
X152720000Y-60440000D01*
X152720000Y-60440000D02*
X152120000Y-61040000D01*
%TO.N,Net-(J2-Pin_3)*%
X157000000Y-57900000D02*
X152720000Y-57900000D01*
X152720000Y-57900000D02*
X152120000Y-58500000D01*
%TO.N,Net-(J2-Pin_8)*%
X147540000Y-51960000D02*
X149000000Y-50500000D01*
X146500000Y-51960000D02*
X147540000Y-51960000D01*
X149000000Y-50500000D02*
X149000000Y-48920000D01*
X149000000Y-48920000D02*
X152120000Y-45800000D01*
X157000000Y-52820000D02*
X152655000Y-57165000D01*
X152655000Y-57165000D02*
X150665000Y-57165000D01*
X150665000Y-57165000D02*
X149000000Y-55500000D01*
X149000000Y-55500000D02*
X149000000Y-54000000D01*
X149000000Y-54000000D02*
X146960000Y-51960000D01*
X146960000Y-51960000D02*
X146500000Y-51960000D01*
%TO.N,Net-(D1-A)*%
X181500000Y-52500000D02*
X181500000Y-54500000D01*
X187235000Y-52235000D02*
X186500000Y-51500000D01*
X187235000Y-54000000D02*
X187235000Y-52235000D01*
X182500000Y-51500000D02*
X181500000Y-52500000D01*
X186500000Y-51500000D02*
X182500000Y-51500000D01*
X181500000Y-54500000D02*
X180640000Y-55360000D01*
X180640000Y-55360000D02*
X179500000Y-55360000D01*
%TO.N,Net-(D1-K)*%
X184680000Y-56500000D02*
X187500000Y-56500000D01*
X183500000Y-55320000D02*
X184680000Y-56500000D01*
X187500000Y-56500000D02*
X189775000Y-54225000D01*
X189775000Y-54225000D02*
X189775000Y-54000000D01*
%TO.N,Net-(J2-Pin_7)*%
X179500000Y-60440000D02*
X177391734Y-60440000D01*
X177391734Y-60440000D02*
X176451734Y-59500000D01*
X176451734Y-59500000D02*
X176451734Y-57808267D01*
X176451734Y-57808267D02*
X168643467Y-50000000D01*
X168643467Y-50000000D02*
X153780000Y-50000000D01*
X153780000Y-50000000D02*
X152120000Y-48340000D01*
%TO.N,Net-(J2-Pin_6)*%
X179500000Y-62980000D02*
X177476734Y-62980000D01*
X177476734Y-62980000D02*
X175996734Y-61500000D01*
X175996734Y-61500000D02*
X175996734Y-57996734D01*
X175996734Y-57996734D02*
X168500000Y-50500000D01*
X168500000Y-50500000D02*
X152500000Y-50500000D01*
X152500000Y-50500000D02*
X152120000Y-50880000D01*
%TO.N,Net-(J2-Pin_5)*%
X179500000Y-65520000D02*
X177603468Y-65520000D01*
X177603468Y-65520000D02*
X175541734Y-63458266D01*
X175541734Y-63458266D02*
X175541734Y-58398266D01*
X175541734Y-58398266D02*
X168143468Y-51000000D01*
X154540000Y-51000000D02*
X152120000Y-53420000D01*
X168143468Y-51000000D02*
X154540000Y-51000000D01*
%TO.N,Net-(J2-Pin_4)*%
X179500000Y-68060000D02*
X175000000Y-63560000D01*
X175000000Y-63560000D02*
X175000000Y-58500000D01*
X155000000Y-53080000D02*
X152120000Y-55960000D01*
X175000000Y-58500000D02*
X168000000Y-51500000D01*
X168000000Y-51500000D02*
X155500000Y-51500000D01*
X155000000Y-52000000D02*
X155000000Y-53080000D01*
X155500000Y-51500000D02*
X155000000Y-52000000D01*
X178750000Y-67350000D02*
X179150000Y-67350000D01*
%TO.N,Net-(U1-RST)*%
X179500000Y-70600000D02*
X182600000Y-70600000D01*
X190250000Y-71750000D02*
X183750000Y-71750000D01*
X182600000Y-70600000D02*
X183750000Y-71750000D01*
%TO.N,Net-(U1-D7)*%
X183750000Y-63500000D02*
X183750000Y-62150000D01*
X183750000Y-62150000D02*
X179500000Y-57900000D01*
X183750000Y-63500000D02*
X190250000Y-63500000D01*
%TO.N,Net-(J2-Pin_8)*%
X157000000Y-52820000D02*
X156180000Y-52820000D01*
%TD*%
M02*
