%TF.GenerationSoftware,KiCad,Pcbnew,9.0.7*%
%TF.CreationDate,2026-10-08T00:28:42-07:00*%
%TF.ProjectId,esp8266_board,65737038-3236-4365-9f62-6f6172642e6b,rev?*%
%TF.SameCoordinates,Original*%
%TF.FileFunction,Soldermask,Top*%
%TF.FilePolarity,Negative*%
%FSLAX46Y46*%
G04 Gerber Fmt 4.6, Leading zero omitted, Abs format (unit mm)*
G04 Created by KiCad (PCBNEW 9.0.7) date 2026-10-08 00:28:42*
%MOMM*%
%LPD*%
G01*
G04 APERTURE LIST*
G04 Aperture macros list*
%AMRoundRect*
0 Rectangle with rounded corners*
0 $1 Rounding radius*
0 $2 $3 $4 $5 $6 $7 $8 $9 X,Y pos of 4 corners*
0 Add a 4 corners polygon primitive as box body*
4,1,4,$2,$3,$4,$5,$6,$7,$8,$9,$2,$3,0*
0 Add four circle primitives for the rounded corners*
1,1,$1+$1,$2,$3*
1,1,$1+$1,$4,$5*
1,1,$1+$1,$6,$7*
1,1,$1+$1,$8,$9*
0 Add four rect primitives between the rounded corners*
20,1,$1+$1,$2,$3,$4,$5,0*
20,1,$1+$1,$4,$5,$6,$7,0*
20,1,$1+$1,$6,$7,$8,$9,0*
20,1,$1+$1,$8,$9,$2,$3,0*%
G04 Aperture macros list end*
%ADD10C,2.200000*%
%ADD11R,2.200000X1.600000*%
%ADD12O,2.200000X1.600000*%
%ADD13C,2.000000*%
%ADD14RoundRect,0.249999X-0.850001X-0.850001X0.850001X-0.850001X0.850001X0.850001X-0.850001X0.850001X0*%
%ADD15C,1.100000*%
%ADD16RoundRect,0.249999X-0.850001X0.850001X-0.850001X-0.850001X0.850001X-0.850001X0.850001X0.850001X0*%
%ADD17C,1.400000*%
%ADD18R,1.800000X1.800000*%
%ADD19C,1.800000*%
%ADD20R,0.850000X0.850000*%
%ADD21C,0.850000*%
G04 APERTURE END LIST*
D10*
%TO.C,M2*%
X161000000Y-71000000D03*
%TD*%
D11*
%TO.C,U1*%
X179500000Y-70600000D03*
D12*
X179500000Y-68060000D03*
X179500000Y-65520000D03*
X179500000Y-62980000D03*
X179500000Y-60440000D03*
X179500000Y-57900000D03*
X179500000Y-55360000D03*
X179500000Y-52820000D03*
X157000000Y-52820000D03*
X157000000Y-55360000D03*
X157000000Y-57900000D03*
X157000000Y-60440000D03*
X157000000Y-62980000D03*
X157000000Y-65520000D03*
X157000000Y-68060000D03*
X157000000Y-70600000D03*
%TD*%
D10*
%TO.C,M2*%
X189000000Y-47000000D03*
%TD*%
%TO.C,M2*%
X145000000Y-47000000D03*
%TD*%
D13*
%TO.C,SW1*%
X190250000Y-63500000D03*
X183750000Y-63500000D03*
X190250000Y-59000000D03*
X183750000Y-59000000D03*
%TD*%
%TO.C,SW2*%
X190250000Y-71750000D03*
X183750000Y-71750000D03*
X190250000Y-67250000D03*
X183750000Y-67250000D03*
%TD*%
D14*
%TO.C,J1*%
X144170000Y-68000000D03*
D10*
X146710000Y-68000000D03*
X149250000Y-68000000D03*
X151790000Y-68000000D03*
%TD*%
D15*
%TO.C,J3*%
X147960000Y-56960000D03*
X147960000Y-59500000D03*
D16*
X150500000Y-56960000D03*
D10*
X150500000Y-59500000D03*
%TD*%
D17*
%TO.C,R1*%
X184250000Y-53000000D03*
X184250000Y-55540000D03*
%TD*%
D18*
%TO.C,D1*%
X190520000Y-55685000D03*
D19*
X187980000Y-55685000D03*
%TD*%
D20*
%TO.C,J2*%
X152000000Y-52750000D03*
D21*
X151000000Y-52750000D03*
X150000000Y-52750000D03*
X149000000Y-52750000D03*
X148000000Y-52750000D03*
X147000000Y-52750000D03*
X146000000Y-52750000D03*
X145000000Y-52750000D03*
%TD*%
M02*
