M48
; DRILL file {KiCad 9.0.7} date 2026-10-08T00:29:50-0700
; FORMAT={-:-/ absolute / metric / decimal}
; #@! TF.CreationDate,2026-10-08T00:29:50-07:00
; #@! TF.GenerationSoftware,Kicad,Pcbnew,9.0.7
; #@! TF.FileFunction,Plated,1,2,PTH
FMAT,2
METRIC
; #@! TA.AperFunction,Plated,PTH,ComponentDrill
T1C0.500
; #@! TA.AperFunction,Plated,PTH,ComponentDrill
T2C0.700
; #@! TA.AperFunction,Plated,PTH,ComponentDrill
T3C0.900
; #@! TA.AperFunction,Plated,PTH,ComponentDrill
T4C1.000
; #@! TA.AperFunction,Plated,PTH,ComponentDrill
T5C1.100
%
G90
G05
T1
X145.0Y-52.75
X146.0Y-52.75
X147.0Y-52.75
X148.0Y-52.75
X149.0Y-52.75
X150.0Y-52.75
X151.0Y-52.75
X152.0Y-52.75
T2
X184.25Y-53.0
X184.25Y-55.54
T3
X187.98Y-55.685
X190.52Y-55.685
T4
X157.0Y-52.82
X157.0Y-55.36
X157.0Y-57.9
X157.0Y-60.44
X157.0Y-62.98
X157.0Y-65.52
X157.0Y-68.06
X157.0Y-70.6
X179.5Y-52.82
X179.5Y-55.36
X179.5Y-57.9
X179.5Y-60.44
X179.5Y-62.98
X179.5Y-65.52
X179.5Y-68.06
X179.5Y-70.6
T5
X144.17Y-68.0
X146.71Y-68.0
X149.25Y-68.0
X150.5Y-56.96
X150.5Y-59.5
X151.79Y-68.0
X183.75Y-59.0
X183.75Y-63.5
X183.75Y-67.25
X183.75Y-71.75
X190.25Y-59.0
X190.25Y-63.5
X190.25Y-67.25
X190.25Y-71.75
M30
