M48
; DRILL file {KiCad 9.0.7} date 2026-10-09T22:28:35-0700
; FORMAT={-:-/ absolute / metric / decimal}
; #@! TF.CreationDate,2026-10-09T22:28:35-07:00
; #@! TF.GenerationSoftware,Kicad,Pcbnew,9.0.7
; #@! TF.FileFunction,Plated,1,2,PTH
FMAT,2
METRIC
; #@! TA.AperFunction,Plated,PTH,ComponentDrill
T1C0.700
; #@! TA.AperFunction,Plated,PTH,ComponentDrill
T2C0.900
; #@! TA.AperFunction,Plated,PTH,ComponentDrill
T3C1.000
; #@! TA.AperFunction,Plated,PTH,ComponentDrill
T4C1.100
; #@! TA.AperFunction,Plated,PTH,ComponentDrill
T5C1.200
%
G90
G05
T1
X183.5Y-52.78
X183.5Y-55.32
T2
X187.235Y-54.0
X189.775Y-54.0
T3
X152.12Y-45.8
X152.12Y-48.34
X152.12Y-50.88
X152.12Y-53.42
X152.12Y-55.96
X152.12Y-58.5
X152.12Y-61.04
X152.12Y-63.58
X157.0Y-52.82
X157.0Y-55.36
X157.0Y-57.9
X157.0Y-60.44
X157.0Y-62.98
X157.0Y-65.52
X157.0Y-68.06
X157.0Y-70.6
X179.5Y-52.82
X179.5Y-55.36
X179.5Y-57.9
X179.5Y-60.44
X179.5Y-62.98
X179.5Y-65.52
X179.5Y-68.06
X179.5Y-70.6
T4
X183.75Y-59.0
X183.75Y-63.5
X183.75Y-67.25
X183.75Y-71.75
X190.25Y-59.0
X190.25Y-63.5
X190.25Y-67.25
X190.25Y-71.75
T5
X145.42Y-69.0
X146.5Y-51.96
X146.5Y-54.5
X147.96Y-69.0
X150.5Y-69.0
X153.04Y-69.0
M30
